<svg width="49" height="49" viewBox="0 0 49 49" fill="none" xmlns="http://www.w3.org/2000/svg">
<path d="M9.42316 0C9.42316 0 5.71235 4.08773 5.71235 6.125C5.71315 7.03385 6.0507 7.91017 6.65981 8.58472C7.26891 9.25926 8.10637 9.68417 9.01043 9.77738C8.5775 9.68721 8.18889 9.45051 7.91013 9.10721C7.63137 8.76391 7.4795 8.335 7.48012 7.89277C7.48012 6.83173 9.42316 4.71154 9.42316 4.71154C9.42316 4.71154 11.3662 6.82985 11.3662 7.89277C11.3662 8.82189 10.7104 9.59835 9.83589 9.77738C10.74 9.68417 11.5774 9.25926 12.1865 8.58472C12.7956 7.91017 13.1332 7.03385 13.134 6.125C13.134 4.08962 9.42316 0 9.42316 0ZM24.5001 0C24.5001 0 20.7893 4.08773 20.7893 6.125C20.7901 7.03385 21.1276 7.91017 21.7367 8.58472C22.3458 9.25926 23.1833 9.68417 24.0874 9.77738C23.6544 9.68721 23.2658 9.45051 22.9871 9.10721C22.7083 8.76391 22.5564 8.335 22.557 7.89277C22.557 6.83173 24.5001 4.71154 24.5001 4.71154C24.5001 4.71154 26.4431 6.82985 26.4431 7.89277C26.4431 8.82189 25.7873 9.59835 24.9128 9.77738C25.8169 9.68417 26.6543 9.25926 27.2634 8.58472C27.8725 7.91017 28.2101 7.03385 28.2109 6.125C28.2109 4.08962 24.5001 0 24.5001 0ZM39.577 0C39.577 0 35.8662 4.08773 35.8662 6.125C35.867 7.03385 36.2045 7.91017 36.8137 8.58472C37.4228 9.25926 38.2602 9.68417 39.1643 9.77738C38.7313 9.68721 38.3427 9.45051 38.064 9.10721C37.7852 8.76391 37.6333 8.335 37.634 7.89277C37.634 6.83173 39.577 4.71154 39.577 4.71154C39.577 4.71154 41.52 6.82985 41.52 7.89277C41.52 8.82189 40.8642 9.59835 39.9897 9.77738C40.8938 9.68417 41.7313 9.25926 42.3404 8.58472C42.9495 7.91017 43.287 7.03385 43.2878 6.125C43.2878 4.08962 39.577 0 39.577 0ZM5.71235 10.7197C5.559 10.6923 5.40147 10.6993 5.25116 10.7402C5.10085 10.7811 4.96151 10.8549 4.84321 10.9563C4.7249 11.0576 4.63059 11.184 4.5671 11.3263C4.5036 11.4685 4.4725 11.6231 4.47604 11.7788C4.47604 12.4573 5.71235 13.6842 5.71235 15.8421V26.3262H13.1359V15.6668C13.1359 14.3495 14.3722 13.8727 14.3722 13.1923C14.3722 12.5138 14.3439 11.7788 12.252 11.7788C9.14047 11.7788 5.71424 10.7178 5.71424 10.7178L5.71235 10.7197ZM20.7893 10.7197C20.6359 10.6923 20.4784 10.6993 20.3281 10.7402C20.1778 10.7811 20.0384 10.8549 19.9201 10.9563C19.8018 11.0576 19.7075 11.184 19.644 11.3263C19.5805 11.4685 19.5494 11.6231 19.553 11.7788C19.553 12.4573 20.7893 13.6842 20.7893 15.8421V26.3262H28.2109V15.6668C28.2109 14.3495 29.4472 13.8727 29.4472 13.1923C29.4472 12.5138 29.4189 11.7788 27.327 11.7788C24.2155 11.7788 20.7893 10.7178 20.7893 10.7178V10.7197ZM35.8662 10.7197C35.7128 10.6923 35.5553 10.6993 35.405 10.7402C35.2547 10.7811 35.1154 10.8549 34.9971 10.9563C34.8787 11.0576 34.7844 11.184 34.7209 11.3263C34.6574 11.4685 34.6263 11.6231 34.6299 11.7788C34.6299 12.4573 35.8662 13.6842 35.8662 15.8421V26.3262H43.2878V15.6668C43.2878 14.3495 44.5241 13.8727 44.5241 13.1923C44.5241 12.5138 44.4959 11.7788 42.4039 11.7788C39.2924 11.7788 35.8662 10.7178 35.8662 10.7178V10.7197ZM7.53854 28.2692C4.41762 28.2692 1.8847 30.8022 1.8847 33.9231V45.2308C1.82568 45.228 1.76656 45.228 1.70754 45.2308C1.46005 45.2424 1.21728 45.3027 0.993076 45.4081C0.768876 45.5136 0.567642 45.6622 0.400864 45.8454C0.0640415 46.2154 -0.111986 46.7041 -0.0884937 47.204C-0.0650016 47.7038 0.156085 48.1738 0.526131 48.5106C0.896176 48.8475 1.38487 49.0235 1.8847 49H47.1155C47.6153 49 48.0947 48.8014 48.4481 48.448C48.8015 48.0946 49.0001 47.6152 49.0001 47.1154C49.0001 46.6156 48.8015 46.1362 48.4481 45.7828C48.0947 45.4293 47.6153 45.2308 47.1155 45.2308V33.9231C47.1155 30.8022 44.5825 28.2692 41.4616 28.2692H7.53854ZM9.42316 35.8077C9.42316 36.8074 9.82027 37.7661 10.5271 38.4729C11.234 39.1798 12.1927 39.5769 13.1924 39.5769C14.1921 39.5769 15.1508 39.1798 15.8576 38.4729C16.5645 37.7661 16.9616 36.8074 16.9616 35.8077C16.9616 36.8074 17.3587 37.7661 18.0656 38.4729C18.7725 39.1798 19.7312 39.5769 20.7309 39.5769C21.7305 39.5769 22.6892 39.1798 23.3961 38.4729C24.103 37.7661 24.5001 36.8074 24.5001 35.8077C24.5001 36.8074 24.8972 37.7661 25.6041 38.4729C26.3109 39.1798 27.2697 39.5769 28.2693 39.5769C29.269 39.5769 30.2277 39.1798 30.9346 38.4729C31.6414 37.7661 32.0385 36.8074 32.0385 35.8077C32.0385 36.8074 32.4357 37.7661 33.1425 38.4729C33.8494 39.1798 34.8081 39.5769 35.8078 39.5769C36.8074 39.5769 37.7662 39.1798 38.473 38.4729C39.1799 37.7661 39.577 36.8074 39.577 35.8077C39.577 36.8074 39.9741 37.7661 40.681 38.4729C41.3879 39.1798 42.3466 39.5769 43.3462 39.5769V45.2308H5.65393V39.5769C6.65359 39.5769 7.61231 39.1798 8.31918 38.4729C9.02605 37.7661 9.42316 36.8074 9.42316 35.8077Z" fill="#383838"/>
</svg>
