<svg width="56" height="56" viewBox="0 0 56 56" fill="none" xmlns="http://www.w3.org/2000/svg">
<path d="M12.4443 12.7556H37.3332V14.56H12.4443V12.7556ZM12.4443 25.6171H25.0226V27.6889H12.4443V25.6171ZM35.6812 19.5378L12.3199 19.6L12.4443 21.28H34.1599L35.6812 19.5378ZM19.9001 45.2231C20.3185 45.7029 20.8496 46.0712 21.4456 46.2949C22.0416 46.5187 22.6838 46.5908 23.3146 46.5049H35.4526C35.7414 46.5049 36.0183 46.3902 36.2225 46.186C36.4267 45.9818 36.5415 45.7048 36.5415 45.416C36.5415 45.1272 36.4267 44.8502 36.2225 44.646C36.0183 44.4418 35.7414 44.3271 35.4526 44.3271H23.3146C21.8975 44.3022 22.1495 43.0718 22.3486 42.6907C22.6082 42.2434 22.8104 41.7652 22.9506 41.2673C23.0436 40.8668 22.9997 40.4466 22.8261 40.0739C22.6524 39.7011 22.3589 39.3973 21.9923 39.2109C21.4035 38.9456 20.7439 38.8806 20.1146 39.0258C19.4853 39.1711 18.9209 39.5186 18.5079 40.0151C17.9728 40.5673 17.2292 41.412 16.5168 42.2333C16.957 40.5082 17.5279 38.2947 18.0879 36.1356C18.2484 35.6436 18.2164 35.1091 17.9985 34.6397C17.7806 34.1704 17.3928 33.8011 16.9135 33.6062C16.3826 33.4241 15.8023 33.4501 15.2899 33.679C14.7774 33.908 14.3709 34.3228 14.1523 34.8398C13.4803 36.1324 8.16035 45.0473 8.10746 45.1376C8.03412 45.2603 7.98569 45.3963 7.96492 45.5378C7.94415 45.6793 7.95145 45.8235 7.9864 45.9622C8.02136 46.1009 8.08329 46.2313 8.16865 46.346C8.25401 46.4608 8.36113 46.5576 8.4839 46.6309C8.73185 46.779 9.02848 46.8225 9.30854 46.7519C9.58859 46.6814 9.82913 46.5024 9.97724 46.2544C10.1763 45.92 14.423 38.8064 15.7623 36.4311C14.7543 40.32 13.6437 44.6476 13.5783 45.0364C13.5048 45.3224 13.5269 45.6245 13.6412 45.8967C13.7555 46.1689 13.9558 46.3961 14.2115 46.5438C14.4962 46.685 14.8199 46.7274 15.1314 46.6643C15.4429 46.6012 15.7245 46.4362 15.9319 46.1953C16.1279 46.018 16.495 45.5964 17.4206 44.5216C18.2829 43.5073 19.1661 42.511 20.0697 41.5333C20.4088 41.1756 20.6141 41.3342 20.415 41.6858C20.0255 42.178 19.7729 42.7643 19.6828 43.3854C19.5927 44.0066 19.6682 44.6405 19.9017 45.2231H19.9001Z" fill="#383838"/>
<path d="M44.2399 34.16V50.4H5.59991V5.59998H44.2399V13.3047L45.6244 11.9202C45.9429 11.6061 46.292 11.3247 46.6666 11.0802V4.66664C46.6666 4.25408 46.5027 3.85842 46.211 3.5667C45.9193 3.27497 45.5236 3.11108 45.1111 3.11108H4.66664C4.25408 3.11108 3.85842 3.27497 3.5667 3.5667C3.27497 3.85842 3.11108 4.25408 3.11108 4.66664V51.3333C3.11108 51.7459 3.27497 52.1415 3.5667 52.4333C3.85842 52.725 4.25408 52.8889 4.66664 52.8889H45.1111C45.5236 52.8889 45.9193 52.725 46.211 52.4333C46.5027 52.1415 46.6666 51.7459 46.6666 51.3333V33.04C45.7125 33.5456 46.6666 33.04 44.2399 34.16Z" fill="#383838"/>
<path d="M53.088 18.4505L52.2745 17.6369C52.6903 17.0874 52.9008 16.4098 52.8695 15.7214C52.8383 15.0331 52.5672 14.3773 52.1034 13.8678C51.5012 13.3371 50.7138 13.0658 49.9126 13.113C49.1114 13.1602 48.3612 13.5221 47.8256 14.1198L28.3422 33.6L27.0402 38.4876C27.0196 38.5515 27.0171 38.6199 27.033 38.6852C27.0489 38.7505 27.0825 38.8101 27.1302 38.8575C27.1779 38.9048 27.2377 38.938 27.3031 38.9535C27.3685 38.9689 27.4369 38.9659 27.5007 38.9449L32.3711 37.6273L50.5587 19.4398L51.3271 20.2098C51.3808 20.2634 51.4234 20.327 51.4524 20.3971C51.4815 20.4672 51.4964 20.5423 51.4964 20.6181C51.4964 20.694 51.4815 20.7691 51.4524 20.8391C51.4234 20.9092 51.3808 20.9729 51.3271 21.0265L43.6785 28.6751C43.4452 28.9086 43.3142 29.2253 43.3143 29.5553C43.3145 29.8854 43.4457 30.2019 43.6792 30.4352C43.9128 30.6685 44.2294 30.7995 44.5595 30.7994C44.8895 30.7992 45.2061 30.668 45.4394 30.4345L53.088 22.7858C53.6629 22.2106 53.9858 21.4306 53.9858 20.6173C53.9858 19.8041 53.6629 19.0241 53.088 18.4489V18.4505Z" fill="#383838"/>
</svg>
