<svg width="38" height="42" viewBox="0 0 38 42" fill="none" xmlns="http://www.w3.org/2000/svg">
<path d="M23.1667 3.125C23.1667 4.85417 21.7708 6.25 20.0417 6.25C18.3125 6.25 16.9167 4.85417 16.9167 3.125C16.9167 1.39583 18.3125 0 20.0417 0C21.7708 0 23.1667 1.39583 23.1667 3.125ZM11.7083 6.25C9.97917 6.25 8.58333 7.64583 8.58333 9.375C8.58333 11.1042 9.97917 12.5 11.7083 12.5C13.4375 12.5 14.8333 11.1042 14.8333 9.375C14.8333 7.64583 13.4375 6.25 11.7083 6.25ZM23.1667 20.8333L21.5417 16.1458H27.7083L32.2083 13.8958C32.9792 13.5417 33.2917 12.5833 32.8958 11.8125C32.8077 11.6273 32.6833 11.4616 32.5301 11.3253C32.3769 11.1889 32.1979 11.0846 32.0037 11.0186C31.8095 10.9526 31.604 10.9261 31.3994 10.9408C31.1948 10.9555 30.9953 11.0111 30.8125 11.1042L29.1042 11.9583L28.0833 10.2083C27.4792 8.85417 26 8.08333 24.5417 8.41667L19.3958 9.52083C17.9583 9.83333 16.9167 11.1458 16.9167 12.6458V14.1042L11.8542 17.4792H11.875C11.7083 17.625 11.4792 17.8125 11.3542 18.0625L9.5 21.75L5.79167 23.6042C5.02083 23.9583 4.70833 24.9375 5.10417 25.7083C5.29272 26.0779 5.61997 26.3577 6.01431 26.4865C6.40865 26.6154 6.83797 26.5828 7.20833 26.3958L11.8333 24.0833L14 19.7917L16.9167 22.9167C14.8333 29.1667 0.25 37.5 0.25 37.5C0.25 37.5 8.58333 41.6667 19 41.6667C29.4167 41.6667 37.75 37.5 37.75 37.5C37.75 37.5 27.3333 29.1667 23.1667 20.8333ZM29.1042 18.9375L28.4375 19.2708H25.9375L26.0625 19.6042C27.1458 21.75 28.7292 23.9583 30.4583 25.9167L29.3542 18.8125L29.1042 18.9375Z" fill="#383838"/>
</svg>
