<svg width="36" height="36" viewBox="0 0 36 36" fill="none" xmlns="http://www.w3.org/2000/svg">
<path d="M23.3924 7.30701H12.6074C9.12738 7.30701 6.30688 10.128 6.30688 13.6075V24.3925C6.30688 27.8725 9.12788 30.693 12.6079 30.693H23.3919C26.8719 30.693 29.6929 27.872 29.6929 24.392V13.6075C29.6929 10.1275 26.8719 7.30701 23.3919 7.30701H23.3924Z" stroke="white" stroke-width="2" stroke-miterlimit="10"/>
<path d="M18 24.645C21.1176 24.645 23.645 22.1176 23.645 19C23.645 15.8823 21.1176 13.355 18 13.355C14.8823 13.355 12.355 15.8823 12.355 19C12.355 22.1176 14.8823 24.645 18 24.645Z" stroke="white" stroke-width="2" stroke-miterlimit="10"/>
<path d="M24.8545 13.355C25.5225 13.355 26.064 12.8135 26.064 12.1455C26.064 11.4775 25.5225 10.936 24.8545 10.936C24.1865 10.936 23.645 11.4775 23.645 12.1455C23.645 12.8135 24.1865 13.355 24.8545 13.355Z" fill="white"/>
</svg>
