<svg width="160" height="60" viewBox="0 0 160 60" fill="none" xmlns="http://www.w3.org/2000/svg">
<path fill-rule="evenodd" clip-rule="evenodd" d="M0 37.1163V0.771835H22.9745C27.9935 0.771835 32.0824 1.08046 35.2407 1.68236C38.4206 2.29961 41.0819 3.65799 43.2233 5.75696C45.3866 7.85594 46.4681 10.3871 46.4681 13.335C46.4681 22.1478 38.8747 26.5463 23.6665 26.5463H8.04749V43.8216L0 37.1163ZM8.04749 21.4069H23.7963C33.3798 21.4069 38.1609 18.7833 38.1609 13.5046C38.1609 11.6216 37.62 10.0785 36.517 8.90542C35.4355 7.71697 33.986 6.91444 32.1903 6.51318C30.3731 6.11191 27.5394 5.91128 23.6453 5.91128H8.04787V21.4069H8.04749ZM56.4196 44.2029V0.771835H64.4671V39.0634H94.4292V44.2029H56.4196V44.2029ZM101.59 23.0429C101.59 18.2894 102.801 14.2148 105.224 10.7884C107.647 7.3623 111 4.70748 115.305 2.82449C119.61 0.941496 124.759 0 130.751 0C139.275 0 146.241 2.05265 151.671 6.15796C157.101 10.2789 159.805 15.7272 159.805 22.5488C159.805 29.9725 156.928 35.5595 151.152 39.3255C145.376 43.0761 138.54 44.9435 130.686 44.9435C122.033 44.9435 115.024 42.8445 109.659 38.6309C104.272 34.4176 101.59 29.2165 101.59 23.0429ZM109.897 23.1356C109.897 28.09 111.779 32.149 115.5 35.2977C119.242 38.4462 124.305 40.0205 130.665 40.0205C137.609 40.0205 142.823 38.3228 146.306 34.9272C149.767 31.5164 151.52 27.3955 151.52 22.5183C151.52 16.7307 149.508 12.3628 145.527 9.39961C141.525 6.43616 136.614 4.95443 130.795 4.95443C123.504 4.95443 118.204 6.68311 114.873 10.1402C111.563 13.5973 109.897 17.9345 109.897 23.1356Z" fill="#1A1A1A"/>
<path fill-rule="evenodd" clip-rule="evenodd" d="M7.01403 58.9179C6.3202 59.3213 5.49805 59.5228 4.56026 59.5228C3.42999 59.5228 2.50487 59.266 1.79836 58.7438C1.09185 58.2214 0.744932 57.543 0.744932 56.709C0.744932 55.893 1.07879 55.2149 1.75994 54.6925C2.44072 54.1611 3.32741 53.8952 4.41926 53.8952C5.38279 53.8952 6.1792 54.0605 6.7962 54.3992L7.13006 54.0235C6.44928 53.6203 5.54991 53.4188 4.40658 53.4188C3.08345 53.4188 2.01696 53.7305 1.20787 54.3625C0.3984 54.9858 0 55.765 0 56.7093C0 57.7083 0.411461 58.5056 1.24629 59.1015C2.08151 59.6974 3.16029 59.9997 4.50954 59.9997C5.58871 59.9997 6.68056 59.7338 7.29756 59.2939L7.01403 58.9179ZM9.41633 59.9172V56.8008C9.81473 56.4434 10.5854 56.1682 11.3434 56.1682C12.6154 56.1682 13.2447 56.6632 13.2447 57.6439V59.9172H13.9128V57.5705C13.9128 56.3332 13.1037 55.719 11.4975 55.719C10.7137 55.719 9.87889 55.9849 9.41633 56.3516V53.5011H8.74824V59.9172H9.41633ZM16.8165 59.9172V55.7924H16.1484V59.9172H16.8165ZM16.0327 54.1887C16.0327 54.3995 16.2387 54.5278 16.5084 54.5278C16.7523 54.5278 16.9452 54.3992 16.9452 54.1887C16.9452 54.0144 16.727 53.8862 16.5084 53.8862C16.2513 53.8862 16.0327 54.0054 16.0327 54.1887ZM19.1803 58.8537C19.1803 59.5962 19.6045 59.972 20.4393 59.972C20.9145 59.972 21.326 59.8805 21.6599 59.6971L21.4927 59.3213C21.2357 59.4587 20.966 59.5228 20.6833 59.5228C20.0797 59.5228 19.8484 59.2295 19.8484 58.5972V53.5008H19.1803V58.8537ZM27.8783 59.9172V53.5011H27.2102V56.0676C26.7607 55.8292 26.1951 55.7099 25.5401 55.7099C24.6277 55.7099 23.8827 55.9117 23.2788 56.3149C22.6876 56.7183 22.3921 57.2407 22.3921 57.8731C22.3921 58.5147 22.6491 59.0281 23.1628 59.4132C23.6768 59.798 24.3576 59.9904 25.2186 59.9904C26.0023 59.9904 26.6704 59.7703 27.2102 59.3304V59.9172H27.8783ZM25.3473 59.5414C24.0111 59.5414 23.099 58.8905 23.099 57.855C23.099 57.3509 23.3303 56.9475 23.8055 56.6361C24.2808 56.3151 24.8716 56.1594 25.5528 56.1594C26.131 56.1594 26.6834 56.2877 27.2102 56.5352V58.8907C26.7987 59.2479 26.0664 59.5414 25.3473 59.5414ZM30.576 59.9172V56.8375C30.9486 56.3883 31.4108 56.1685 31.9894 56.1685C32.2848 56.1685 32.5545 56.2236 32.7985 56.3242L33.0298 55.8752C32.8373 55.7744 32.5288 55.7193 32.1304 55.7193C31.475 55.7193 30.9613 55.9303 30.576 56.3425V55.7924H29.9079V59.9172H30.576ZM38.708 59.0464C38.2585 59.3855 37.6288 59.5505 36.8324 59.5505C35.4447 59.5505 34.5196 58.9456 34.4685 57.9558H39.2351C39.2608 57.8459 39.2735 57.7174 39.2735 57.5707C39.2735 57.0119 39.0296 56.5626 38.5286 56.2236C38.0276 55.8845 37.4106 55.7102 36.653 55.7102C35.7406 55.7102 35.0214 55.9119 34.4947 56.3151C33.981 56.7186 33.724 57.2317 33.724 57.855C33.724 58.5056 34.0067 59.019 34.5719 59.4134C35.137 59.8076 35.8823 60 36.7944 60C37.6937 60 38.4003 59.8076 38.927 59.4134L38.708 59.0464ZM36.5885 56.1592C37.809 56.1592 38.5801 56.6906 38.5927 57.5614H34.4305C34.5457 56.7274 35.3422 56.1592 36.5885 56.1592ZM41.5348 59.9172V56.8008C41.9459 56.4434 42.7039 56.1682 43.4619 56.1682C44.7339 56.1682 45.3632 56.6632 45.3632 57.6532V59.9172H46.0313V57.5614C46.0313 56.2874 45.2091 55.719 43.6159 55.719C42.8322 55.719 41.997 56.0032 41.5348 56.3699V55.7924H40.8667V59.9172H41.5348ZM49.6157 54.7383L48.2281 53.3635L47.7013 53.6474L49.1916 54.9491L49.6157 54.7383ZM54.395 58.8356C54.395 59.3123 53.8168 59.5782 53.0976 59.5782C52.8018 59.5782 52.481 59.5324 52.1467 59.4406C51.8129 59.349 51.5685 59.2295 51.4145 59.0922L51.0418 59.4038C51.1832 59.5595 51.4402 59.6971 51.8382 59.8163C52.2362 59.9356 52.622 59.9997 53.02 59.9997C54.2021 59.9997 55.1011 59.5872 55.1011 58.8173C55.1011 57.3783 51.902 57.8733 51.902 56.7918C51.902 56.425 52.3646 56.1318 53.0711 56.1318C53.6877 56.1318 54.1887 56.2603 54.5871 56.5259L54.8698 56.1682C54.4587 55.8656 53.8548 55.7099 53.0584 55.7099C51.9404 55.7099 51.1955 56.1408 51.1955 56.8005C51.1959 58.3039 54.395 57.8089 54.395 58.8356ZM60.9084 57.3413C61.3579 57.369 61.8593 57.378 62.3987 57.378C63.4517 57.378 64.2485 57.1856 64.7883 56.8099C65.328 56.4341 65.5974 55.9668 65.5974 55.4167C65.5974 54.4634 64.8908 53.4827 62.3987 53.4827C62.2311 53.4827 61.8589 53.4827 61.2937 53.4917C60.7286 53.5008 60.3686 53.5008 60.2019 53.5008V59.9169H60.9084V57.3413ZM62.4632 53.9596C64.0948 53.9596 64.8528 54.5278 64.8528 55.4076C64.8528 56.3151 63.9661 56.9017 62.3733 56.9017C61.9492 56.9017 61.4612 56.8833 60.9088 56.8559V53.9777C61.4735 53.9687 61.9876 53.9596 62.4632 53.9596ZM67.5632 59.9172V56.8375C67.9359 56.3883 68.3984 56.1685 68.9766 56.1685C69.2725 56.1685 69.5422 56.2236 69.7857 56.3242L70.0174 55.8752C69.8245 55.7744 69.5164 55.7193 69.118 55.7193C68.4626 55.7193 67.9489 55.9303 67.5632 56.3425V55.7924H66.8955V59.9172H67.5632ZM71.5587 59.3948C72.1242 59.7983 72.8565 59.9997 73.7428 59.9997C74.6295 59.9997 75.3618 59.7983 75.9273 59.3948C76.4924 58.9913 76.7752 58.4782 76.7752 57.855C76.7752 57.2317 76.4924 56.7186 75.9273 56.3151C75.3618 55.9119 74.6295 55.7102 73.7428 55.7102C72.8565 55.7102 72.1242 55.9119 71.5587 56.3151C70.9932 56.7186 70.7108 57.2317 70.7108 57.855C70.7108 58.4782 70.9936 58.9913 71.5587 59.3948ZM73.7428 59.5505C73.062 59.5505 72.5096 59.3948 72.0728 59.0738C71.636 58.7531 71.4174 58.3497 71.4174 57.855C71.4174 57.3602 71.636 56.9568 72.0728 56.6361C72.5223 56.3151 73.0747 56.1594 73.7428 56.1594C74.4236 56.1594 74.9764 56.3151 75.4132 56.6361C75.8501 56.9568 76.0683 57.3602 76.0683 57.855C76.0683 58.359 75.8501 58.7625 75.4132 59.0832C74.9891 59.3948 74.4236 59.5505 73.7428 59.5505ZM83.4815 59.9172V53.5011H82.8134V56.0676C82.3639 55.8292 81.7984 55.7099 81.1433 55.7099C80.2309 55.7099 79.486 55.9117 78.882 56.3149C78.2912 56.7183 77.9953 57.2407 77.9953 57.8731C77.9953 58.5147 78.2524 59.0281 78.7664 59.4132C79.2801 59.798 79.9608 59.9904 80.8218 59.9904C81.6055 59.9904 82.2736 59.7703 82.8134 59.3304V59.9172H83.4815ZM80.9505 59.5414C79.6143 59.5414 78.7019 58.8905 78.7019 57.855C78.7019 57.3509 78.9335 56.9475 79.4084 56.6361C79.884 56.3151 80.4749 56.1594 81.156 56.1594C81.7342 56.1594 82.2863 56.2877 82.813 56.5352V58.8907C82.4019 59.2479 81.6697 59.5414 80.9505 59.5414ZM89.789 55.7924V58.8356C89.3779 59.2114 88.5946 59.5505 87.8362 59.5505C86.6418 59.5505 86.0505 59.0648 86.0505 58.0838V55.7924H85.3828V58.185C85.3828 59.3948 86.1151 59.9997 87.5926 59.9997C88.4659 59.9997 89.3268 59.6788 89.7894 59.2662V59.9172H90.4575V55.7924H89.789ZM96.9967 58.9823C96.5468 59.3581 95.9432 59.5505 95.1979 59.5505C94.5037 59.5505 93.9255 59.3948 93.4764 59.0922C93.0269 58.7806 92.7956 58.3681 92.7956 57.8547C92.7956 57.369 93.0138 56.9655 93.4637 56.6449C93.9132 56.3239 94.4399 56.1592 95.0696 56.1592C95.8276 56.1592 96.4315 56.3058 96.8941 56.6084L97.2153 56.2236C96.7139 55.8845 95.9563 55.7102 94.9666 55.7102C94.1445 55.7102 93.4637 55.9213 92.9109 56.3335C92.3584 56.746 92.0887 57.25 92.0887 57.855C92.0887 58.5056 92.3711 59.019 92.9366 59.4134C93.5148 59.8076 94.2471 60 95.1464 60C96.0197 60 96.8549 59.7615 97.3305 59.3309L96.9967 58.9823ZM98.6667 58.3497C98.6667 59.4222 99.2322 59.972 100.479 59.972C101.005 59.972 101.429 59.8714 101.776 59.6787L101.558 59.303C101.288 59.4496 100.979 59.5231 100.633 59.5231C99.772 59.5231 99.3352 59.1108 99.3352 58.2765V56.2417H101.661V55.7924H99.3352V54.6468H98.6671V58.3497H98.6667ZM104.255 59.9172V55.7924H103.587V59.9172H104.255ZM103.472 54.1887C103.472 54.3995 103.677 54.5278 103.947 54.5278C104.191 54.5278 104.384 54.3992 104.384 54.1887C104.384 54.0144 104.166 53.8862 103.947 53.8862C103.69 53.8862 103.472 54.0054 103.472 54.1887ZM107.056 59.3948C107.621 59.7983 108.353 59.9997 109.24 59.9997C110.127 59.9997 110.859 59.7983 111.425 59.3948C111.99 58.9913 112.273 58.4782 112.273 57.855C112.273 57.2317 111.99 56.7186 111.425 56.3151C110.859 55.9119 110.127 55.7102 109.24 55.7102C108.353 55.7102 107.621 55.9119 107.056 56.3151C106.491 56.7186 106.208 57.2317 106.208 57.855C106.208 58.4782 106.491 58.9913 107.056 59.3948ZM109.24 59.5505C108.559 59.5505 108.007 59.3948 107.57 59.0738C107.133 58.7531 106.914 58.3497 106.914 57.855C106.914 57.3602 107.133 56.9568 107.57 56.6361C108.019 56.3151 108.571 56.1594 109.24 56.1594C109.921 56.1594 110.473 56.3151 110.91 56.6361C111.347 56.9568 111.565 57.3602 111.565 57.855C111.565 58.359 111.347 58.7625 110.91 59.0832C110.486 59.3948 109.921 59.5505 109.24 59.5505ZM114.572 59.9172V56.8008C114.983 56.4434 115.741 56.1682 116.499 56.1682C117.771 56.1682 118.4 56.6632 118.4 57.6532V59.9172H119.068V57.5614C119.068 56.2874 118.246 55.719 116.653 55.719C115.869 55.719 115.034 56.0032 114.572 56.3699V55.7924H113.904V59.9172H114.572ZM130.695 58.9179C130.001 59.3213 129.179 59.5228 128.241 59.5228C127.111 59.5228 126.185 59.266 125.479 58.7438C124.772 58.2214 124.426 57.543 124.426 56.709C124.426 55.893 124.76 55.2149 125.441 54.6925C126.122 54.1611 127.008 53.8952 128.1 53.8952C129.064 53.8952 129.86 54.0605 130.477 54.3992L130.811 54.0235C130.131 53.6203 129.231 53.4188 128.087 53.4188C126.764 53.4188 125.698 53.7305 124.889 54.3625C124.079 54.9858 123.68 55.765 123.68 56.7093C123.68 57.7083 124.092 58.5056 124.927 59.1015C125.762 59.6974 126.841 59.9997 128.19 59.9997C129.269 59.9997 130.361 59.7338 130.978 59.2939L130.695 58.9179ZM136.669 59.0464C136.219 59.3855 135.59 59.5505 134.793 59.5505C133.406 59.5505 132.481 58.9456 132.429 57.9558H137.196C137.221 57.8459 137.234 57.7174 137.234 57.5707C137.234 57.0119 136.991 56.5626 136.49 56.2236C135.989 55.8845 135.372 55.7102 134.614 55.7102C133.702 55.7102 132.982 55.9119 132.456 56.3151C131.942 56.7186 131.685 57.2317 131.685 57.855C131.685 58.5056 131.967 59.019 132.532 59.4134C133.098 59.8076 133.843 60 134.755 60C135.654 60 136.361 59.8076 136.888 59.4134L136.669 59.0464ZM134.549 56.1592C135.77 56.1592 136.541 56.6906 136.553 57.5614H132.391C132.507 56.7274 133.303 56.1592 134.549 56.1592ZM139.495 59.9172V56.8008C139.906 56.4434 140.664 56.1682 141.423 56.1682C142.695 56.1682 143.324 56.6632 143.324 57.6532V59.9172H143.992V57.5614C143.992 56.2874 143.17 55.719 141.577 55.719C140.793 55.719 139.958 56.0032 139.495 56.3699V55.7924H138.828V59.9172H139.495ZM145.778 58.3497C145.778 59.4222 146.343 59.972 147.589 59.972C148.116 59.972 148.54 59.8714 148.887 59.6787L148.669 59.303C148.399 59.4496 148.091 59.5231 147.744 59.5231C146.883 59.5231 146.446 59.1108 146.446 58.2765V56.2417H148.772V55.7924H146.446V54.6468H145.778V58.3497H145.778ZM154.719 59.0464C154.27 59.3855 153.64 59.5505 152.844 59.5505C151.456 59.5505 150.531 58.9456 150.48 57.9558H155.246C155.271 57.8459 155.285 57.7174 155.285 57.5707C155.285 57.0119 155.041 56.5626 154.54 56.2236C154.039 55.8845 153.422 55.7102 152.664 55.7102C151.752 55.7102 151.032 55.9119 150.506 56.3151C149.992 56.7186 149.735 57.2317 149.735 57.855C149.735 58.5056 150.017 59.019 150.583 59.4134C151.148 59.8076 151.893 60 152.805 60C153.705 60 154.411 59.8076 154.938 59.4134L154.719 59.0464ZM152.6 56.1592C153.82 56.1592 154.591 56.6906 154.604 57.5614H150.442C150.557 56.7274 151.354 56.1592 152.6 56.1592ZM157.546 59.9172V56.8375C157.919 56.3883 158.381 56.1685 158.959 56.1685C159.255 56.1685 159.525 56.2236 159.769 56.3242L160 55.8752C159.807 55.7744 159.499 55.7193 159.101 55.7193C158.446 55.7193 157.932 55.9303 157.546 56.3425V55.7924H156.878V59.9172H157.546Z" fill="#1A1A1A"/>
</svg>
