<svg width="160" height="60" viewBox="0 0 160 60" fill="none" xmlns="http://www.w3.org/2000/svg">
<path fill-rule="evenodd" clip-rule="evenodd" d="M0 37.1163V0.771835H22.9745C27.9935 0.771835 32.0824 1.08046 35.2407 1.68236C38.4206 2.29961 41.0819 3.65799 43.2233 5.75696C45.3866 7.85594 46.4681 10.3871 46.4681 13.335C46.4681 22.1478 38.8747 26.5463 23.6665 26.5463H8.04749V43.8216L0 37.1163ZM8.04749 21.4069H23.7963C33.3798 21.4069 38.1609 18.7833 38.1609 13.5046C38.1609 11.6216 37.62 10.0785 36.517 8.90542C35.4355 7.71697 33.986 6.91444 32.1903 6.51318C30.3731 6.11191 27.5394 5.91128 23.6453 5.91128H8.04787V21.4069H8.04749ZM56.4196 44.2029V0.771835H64.4671V39.0634H94.4292V44.2029H56.4196ZM101.59 23.0429C101.59 18.2894 102.801 14.2148 105.224 10.7884C107.647 7.3623 111 4.70748 115.305 2.82449C119.61 0.941496 124.759 0 130.751 0C139.275 0 146.241 2.05265 151.671 6.15796C157.101 10.2789 159.805 15.7272 159.805 22.5488C159.805 29.9725 156.928 35.5595 151.152 39.3255C145.376 43.0761 138.54 44.9435 130.686 44.9435C122.033 44.9435 115.024 42.8445 109.659 38.6309C104.272 34.4176 101.59 29.2165 101.59 23.0429ZM109.897 23.1356C109.897 28.09 111.779 32.149 115.5 35.2977C119.242 38.4462 124.305 40.0205 130.665 40.0205C137.609 40.0205 142.823 38.3228 146.306 34.9272C149.767 31.5164 151.52 27.3955 151.52 22.5183C151.52 16.7307 149.508 12.3628 145.527 9.39961C141.525 6.43616 136.614 4.95443 130.795 4.95443C123.504 4.95443 118.204 6.68311 114.873 10.1402C111.563 13.5973 109.897 17.9345 109.897 23.1356Z" fill="white"/>
<path fill-rule="evenodd" clip-rule="evenodd" d="M7.01403 58.9177C6.3202 59.3211 5.49805 59.5226 4.56026 59.5226C3.42999 59.5226 2.50487 59.2658 1.79836 58.7436C1.09185 58.2212 0.744932 57.5429 0.744932 56.7088C0.744932 55.8928 1.07879 55.2148 1.75994 54.6923C2.44072 54.1609 3.32741 53.895 4.41926 53.895C5.38279 53.895 6.1792 54.0603 6.7962 54.3991L7.13006 54.0233C6.44928 53.6201 5.54991 53.4186 4.40658 53.4186C3.08345 53.4186 2.01696 53.7303 1.20787 54.3623C0.3984 54.9856 0 55.7648 0 56.7091C0 57.7081 0.411461 58.5055 1.24629 59.1013C2.08151 59.6972 3.16029 59.9995 4.50954 59.9995C5.58871 59.9995 6.68056 59.7337 7.29756 59.2937L7.01403 58.9177ZM9.41633 59.917V56.8006C9.81473 56.4432 10.5854 56.168 11.3434 56.168C12.6154 56.168 13.2447 56.663 13.2447 57.6437V59.917H13.9128V57.5703C13.9128 56.333 13.1037 55.7188 11.4975 55.7188C10.7137 55.7188 9.87889 55.9847 9.41633 56.3514V53.5009H8.74824V59.917H9.41633ZM16.8165 59.917V55.7923H16.1484V59.917H16.8165ZM16.0327 54.1886C16.0327 54.3993 16.2387 54.5276 16.5084 54.5276C16.7523 54.5276 16.9452 54.3991 16.9452 54.1886C16.9452 54.0142 16.727 53.886 16.5084 53.886C16.2513 53.886 16.0327 54.0052 16.0327 54.1886ZM19.1803 58.8536C19.1803 59.5961 19.6045 59.9718 20.4393 59.9718C20.9145 59.9718 21.326 59.8803 21.6599 59.6969L21.4927 59.3212C21.2357 59.4585 20.966 59.5226 20.6833 59.5226C20.0797 59.5226 19.8484 59.2293 19.8484 58.597V53.5006H19.1803V58.8536ZM27.8783 59.917V53.5009H27.2102V56.0674C26.7607 55.829 26.1951 55.7098 25.5401 55.7098C24.6277 55.7098 23.8827 55.9115 23.2788 56.3147C22.6876 56.7181 22.3921 57.2405 22.3921 57.8729C22.3921 58.5145 22.6491 59.0279 23.1628 59.413C23.6768 59.7978 24.3576 59.9902 25.2186 59.9902C26.0023 59.9902 26.6704 59.7701 27.2102 59.3302V59.917H27.8783ZM25.3473 59.5412C24.0111 59.5412 23.099 58.8903 23.099 57.8548C23.099 57.3507 23.3303 56.9473 23.8055 56.6359C24.2808 56.3149 24.8716 56.1593 25.5528 56.1593C26.131 56.1593 26.6834 56.2875 27.2102 56.535V58.8906C26.7987 59.2477 26.0664 59.5412 25.3473 59.5412ZM30.576 59.917V56.8374C30.9486 56.3881 31.4108 56.1683 31.9894 56.1683C32.2848 56.1683 32.5545 56.2234 32.7985 56.324L33.0298 55.875C32.8373 55.7742 32.5288 55.7191 32.1304 55.7191C31.475 55.7191 30.9613 55.9301 30.576 56.3424V55.7923H29.9079V59.917H30.576ZM38.708 59.0462C38.2585 59.3853 37.6288 59.5503 36.8324 59.5503C35.4447 59.5503 34.5196 58.9454 34.4685 57.9556H39.2351C39.2608 57.8457 39.2735 57.7172 39.2735 57.5705C39.2735 57.0117 39.0296 56.5624 38.5286 56.2234C38.0276 55.8844 37.4106 55.71 36.653 55.71C35.7406 55.71 35.0214 55.9118 34.4947 56.3149C33.981 56.7184 33.724 57.2315 33.724 57.8548C33.724 58.5055 34.0067 59.0188 34.5719 59.4132C35.137 59.8074 35.8823 59.9998 36.7944 59.9998C37.6937 59.9998 38.4003 59.8074 38.927 59.4132L38.708 59.0462ZM36.5885 56.159C37.809 56.159 38.5801 56.6904 38.5927 57.5612H34.4305C34.5457 56.7272 35.3422 56.159 36.5885 56.159ZM41.5348 59.917V56.8006C41.9459 56.4432 42.7039 56.168 43.4619 56.168C44.7339 56.168 45.3632 56.663 45.3632 57.653V59.917H46.0313V57.5612C46.0313 56.2873 45.2091 55.7188 43.6159 55.7188C42.8322 55.7188 41.997 56.003 41.5348 56.3698V55.7923H40.8667V59.917H41.5348ZM49.6157 54.7381L48.2281 53.3633L47.7013 53.6472L49.1916 54.9489L49.6157 54.7381ZM54.395 58.8355C54.395 59.3121 53.8168 59.578 53.0976 59.578C52.8018 59.578 52.481 59.5322 52.1467 59.4404C51.8129 59.3488 51.5685 59.2293 51.4145 59.092L51.0418 59.4037C51.1832 59.5593 51.4402 59.6969 51.8382 59.8162C52.2362 59.9354 52.622 59.9995 53.02 59.9995C54.2021 59.9995 55.1011 59.587 55.1011 58.8171C55.1011 57.3781 51.902 57.8731 51.902 56.7916C51.902 56.4249 52.3646 56.1316 53.0711 56.1316C53.6877 56.1316 54.1887 56.2601 54.5871 56.5257L54.8698 56.168C54.4587 55.8654 53.8548 55.7098 53.0584 55.7098C51.9404 55.7098 51.1955 56.1406 51.1955 56.8004C51.1959 58.3037 54.395 57.8087 54.395 58.8355ZM60.9084 57.3411C61.3579 57.3688 61.8593 57.3779 62.3987 57.3779C63.4517 57.3779 64.2485 57.1855 64.7883 56.8097C65.328 56.4339 65.5974 55.9666 65.5974 55.4165C65.5974 54.4632 64.8908 53.4825 62.3987 53.4825C62.2311 53.4825 61.8589 53.4825 61.2937 53.4916C60.7286 53.5006 60.3686 53.5006 60.2019 53.5006V59.9167H60.9084V57.3411ZM62.4632 53.9594C64.0948 53.9594 64.8528 54.5276 64.8528 55.4074C64.8528 56.3149 63.9661 56.9015 62.3733 56.9015C61.9492 56.9015 61.4612 56.8831 60.9088 56.8557V53.9775C61.4735 53.9685 61.9876 53.9594 62.4632 53.9594ZM67.5632 59.917V56.8374C67.9359 56.3881 68.3984 56.1683 68.9766 56.1683C69.2725 56.1683 69.5422 56.2234 69.7857 56.324L70.0174 55.875C69.8245 55.7742 69.5164 55.7191 69.118 55.7191C68.4626 55.7191 67.9489 55.9301 67.5632 56.3424V55.7923H66.8955V59.917H67.5632ZM71.5587 59.3946C72.1242 59.7981 72.8565 59.9995 73.7428 59.9995C74.6295 59.9995 75.3618 59.7981 75.9273 59.3946C76.4924 58.9912 76.7752 58.4781 76.7752 57.8548C76.7752 57.2315 76.4924 56.7184 75.9273 56.3149C75.3618 55.9118 74.6295 55.71 73.7428 55.71C72.8565 55.71 72.1242 55.9118 71.5587 56.3149C70.9932 56.7184 70.7108 57.2315 70.7108 57.8548C70.7108 58.4781 70.9936 58.9912 71.5587 59.3946ZM73.7428 59.5503C73.062 59.5503 72.5096 59.3946 72.0728 59.0736C71.636 58.753 71.4174 58.3495 71.4174 57.8548C71.4174 57.36 71.636 56.9566 72.0728 56.6359C72.5223 56.3149 73.0747 56.1593 73.7428 56.1593C74.4236 56.1593 74.9764 56.3149 75.4132 56.6359C75.8501 56.9566 76.0683 57.36 76.0683 57.8548C76.0683 58.3588 75.8501 58.7623 75.4132 59.083C74.9891 59.3946 74.4236 59.5503 73.7428 59.5503ZM83.4815 59.917V53.5009H82.8134V56.0674C82.3639 55.829 81.7984 55.7098 81.1433 55.7098C80.2309 55.7098 79.486 55.9115 78.882 56.3147C78.2912 56.7181 77.9953 57.2405 77.9953 57.8729C77.9953 58.5145 78.2524 59.0279 78.7664 59.413C79.2801 59.7978 79.9608 59.9902 80.8218 59.9902C81.6055 59.9902 82.2736 59.7701 82.8134 59.3302V59.917H83.4815ZM80.9505 59.5412C79.6143 59.5412 78.7019 58.8903 78.7019 57.8548C78.7019 57.3507 78.9335 56.9473 79.4084 56.6359C79.884 56.3149 80.4749 56.1593 81.156 56.1593C81.7342 56.1593 82.2863 56.2875 82.813 56.535V58.8906C82.4019 59.2477 81.6697 59.5412 80.9505 59.5412ZM89.789 55.7923V58.8355C89.3779 59.2112 88.5946 59.5503 87.8362 59.5503C86.6418 59.5503 86.0505 59.0646 86.0505 58.0836V55.7923H85.3828V58.1848C85.3828 59.3946 86.1151 59.9995 87.5926 59.9995C88.4659 59.9995 89.3268 59.6786 89.7894 59.2661V59.917H90.4575V55.7923H89.789ZM96.9967 58.9821C96.5468 59.3579 95.9432 59.5503 95.1979 59.5503C94.5037 59.5503 93.9255 59.3946 93.4764 59.092C93.0269 58.7804 92.7956 58.3679 92.7956 57.8545C92.7956 57.3688 93.0138 56.9654 93.4637 56.6447C93.9132 56.3237 94.4399 56.159 95.0696 56.159C95.8276 56.159 96.4315 56.3056 96.8941 56.6082L97.2153 56.2234C96.7139 55.8844 95.9563 55.71 94.9666 55.71C94.1445 55.71 93.4637 55.9211 92.9109 56.3333C92.3584 56.7458 92.0887 57.2499 92.0887 57.8548C92.0887 58.5055 92.3711 59.0188 92.9366 59.4132C93.5148 59.8074 94.2471 59.9998 95.1464 59.9998C96.0197 59.9998 96.8549 59.7613 97.3305 59.3307L96.9967 58.9821ZM98.6667 58.3495C98.6667 59.422 99.2322 59.9718 100.479 59.9718C101.005 59.9718 101.429 59.8712 101.776 59.6786L101.558 59.3028C101.288 59.4494 100.979 59.5229 100.633 59.5229C99.772 59.5229 99.3352 59.1106 99.3352 58.2763V56.2415H101.661V55.7923H99.3352V54.6466H98.6671V58.3495H98.6667ZM104.255 59.917V55.7923H103.587V59.917H104.255ZM103.472 54.1886C103.472 54.3993 103.677 54.5276 103.947 54.5276C104.191 54.5276 104.384 54.3991 104.384 54.1886C104.384 54.0142 104.166 53.886 103.947 53.886C103.69 53.886 103.472 54.0052 103.472 54.1886ZM107.056 59.3946C107.621 59.7981 108.353 59.9995 109.24 59.9995C110.127 59.9995 110.859 59.7981 111.425 59.3946C111.99 58.9912 112.273 58.4781 112.273 57.8548C112.273 57.2315 111.99 56.7184 111.425 56.3149C110.859 55.9118 110.127 55.71 109.24 55.71C108.353 55.71 107.621 55.9118 107.056 56.3149C106.491 56.7184 106.208 57.2315 106.208 57.8548C106.208 58.4781 106.491 58.9912 107.056 59.3946ZM109.24 59.5503C108.559 59.5503 108.007 59.3946 107.57 59.0736C107.133 58.753 106.914 58.3495 106.914 57.8548C106.914 57.36 107.133 56.9566 107.57 56.6359C108.019 56.3149 108.571 56.1593 109.24 56.1593C109.921 56.1593 110.473 56.3149 110.91 56.6359C111.347 56.9566 111.565 57.36 111.565 57.8548C111.565 58.3588 111.347 58.7623 110.91 59.083C110.486 59.3946 109.921 59.5503 109.24 59.5503ZM114.572 59.917V56.8006C114.983 56.4432 115.741 56.168 116.499 56.168C117.771 56.168 118.4 56.663 118.4 57.653V59.917H119.068V57.5612C119.068 56.2873 118.246 55.7188 116.653 55.7188C115.869 55.7188 115.034 56.003 114.572 56.3698V55.7923H113.904V59.917H114.572ZM130.695 58.9177C130.001 59.3211 129.179 59.5226 128.241 59.5226C127.111 59.5226 126.185 59.2658 125.479 58.7436C124.772 58.2212 124.426 57.5429 124.426 56.7088C124.426 55.8928 124.76 55.2148 125.441 54.6923C126.122 54.1609 127.008 53.895 128.1 53.895C129.064 53.895 129.86 54.0603 130.477 54.3991L130.811 54.0233C130.131 53.6201 129.231 53.4186 128.087 53.4186C126.764 53.4186 125.698 53.7303 124.889 54.3623C124.079 54.9856 123.68 55.7648 123.68 56.7091C123.68 57.7081 124.092 58.5055 124.927 59.1013C125.762 59.6972 126.841 59.9995 128.19 59.9995C129.269 59.9995 130.361 59.7337 130.978 59.2937L130.695 58.9177ZM136.669 59.0462C136.219 59.3853 135.59 59.5503 134.793 59.5503C133.406 59.5503 132.481 58.9454 132.429 57.9556H137.196C137.221 57.8457 137.234 57.7172 137.234 57.5705C137.234 57.0117 136.991 56.5624 136.49 56.2234C135.989 55.8844 135.372 55.71 134.614 55.71C133.702 55.71 132.982 55.9118 132.456 56.3149C131.942 56.7184 131.685 57.2315 131.685 57.8548C131.685 58.5055 131.967 59.0188 132.532 59.4132C133.098 59.8074 133.843 59.9998 134.755 59.9998C135.654 59.9998 136.361 59.8074 136.888 59.4132L136.669 59.0462ZM134.549 56.159C135.77 56.159 136.541 56.6904 136.553 57.5612H132.391C132.507 56.7272 133.303 56.159 134.549 56.159ZM139.495 59.917V56.8006C139.906 56.4432 140.664 56.168 141.423 56.168C142.695 56.168 143.324 56.663 143.324 57.653V59.917H143.992V57.5612C143.992 56.2873 143.17 55.7188 141.577 55.7188C140.793 55.7188 139.958 56.003 139.495 56.3698V55.7923H138.828V59.917H139.495ZM145.778 58.3495C145.778 59.422 146.343 59.9718 147.589 59.9718C148.116 59.9718 148.54 59.8712 148.887 59.6786L148.669 59.3028C148.399 59.4494 148.091 59.5229 147.744 59.5229C146.883 59.5229 146.446 59.1106 146.446 58.2763V56.2415H148.772V55.7923H146.446V54.6466H145.778V58.3495H145.778ZM154.719 59.0462C154.27 59.3853 153.64 59.5503 152.844 59.5503C151.456 59.5503 150.531 58.9454 150.48 57.9556H155.246C155.271 57.8457 155.285 57.7172 155.285 57.5705C155.285 57.0117 155.041 56.5624 154.54 56.2234C154.039 55.8844 153.422 55.71 152.664 55.71C151.752 55.71 151.032 55.9118 150.506 56.3149C149.992 56.7184 149.735 57.2315 149.735 57.8548C149.735 58.5055 150.017 59.0188 150.583 59.4132C151.148 59.8074 151.893 59.9998 152.805 59.9998C153.705 59.9998 154.411 59.8074 154.938 59.4132L154.719 59.0462ZM152.6 56.159C153.82 56.159 154.591 56.6904 154.604 57.5612H150.442C150.557 56.7272 151.354 56.159 152.6 56.159ZM157.546 59.917V56.8374C157.919 56.3881 158.381 56.1683 158.959 56.1683C159.255 56.1683 159.525 56.2234 159.769 56.324L160 55.875C159.807 55.7742 159.499 55.7191 159.101 55.7191C158.446 55.7191 157.932 55.9301 157.546 56.3424V55.7923H156.878V59.917H157.546Z" fill="white"/>
</svg>
