<svg width="47" height="47" viewBox="0 0 47 47" fill="none" xmlns="http://www.w3.org/2000/svg">
<path d="M3.68902 0C3.68902 0 0.083252 0 0.083252 3.60577V22.2043C0.083252 28.4423 1.35969 36.0577 12.7034 36.0577H14.5063V25.2404L5.49191 28.8462C5.49191 28.8462 5.49191 19.8317 14.5063 19.8317V14.4231C14.5063 11.8702 14.82 9.66346 16.3092 8.02284C17.683 6.50841 19.933 3.48678 25.8861 6.32452L28.9294 8.30409V3.60577C28.9294 3.60577 28.9294 0 25.3236 0C22.7708 0 18.1914 3.60577 14.5063 3.60577C10.8212 3.60577 6.52676 0 3.68902 0ZM7.29479 7.21154C8.2511 7.21154 9.16824 7.59143 9.84445 8.26764C10.5207 8.94386 10.9006 9.861 10.9006 10.8173C10.9006 11.7736 10.5207 12.6908 9.84445 13.367C9.16824 14.0432 8.2511 14.4231 7.29479 14.4231C6.33848 14.4231 5.42134 14.0432 4.74513 13.367C4.06891 12.6908 3.68902 11.7736 3.68902 10.8173C3.68902 9.861 4.06891 8.94386 4.74513 8.26764C5.42134 7.59143 6.33848 7.21154 7.29479 7.21154ZM21.7179 10.8173C21.7179 10.8173 18.1121 10.8173 18.1121 14.4231V32.4519C18.1121 39.6635 21.7179 46.875 32.5352 46.875C43.3525 46.875 46.9583 39.6635 46.9583 32.4519V14.4231C46.9583 10.8173 43.3525 10.8173 43.3525 10.8173C40.7996 10.8173 36.2203 14.4231 32.5352 14.4231C28.8501 14.4231 24.5556 10.8173 21.7179 10.8173ZM25.3236 18.0288C26.2799 18.0288 27.1971 18.4087 27.8733 19.085C28.5495 19.7612 28.9294 20.6783 28.9294 21.6346C28.9294 22.5909 28.5495 23.5081 27.8733 24.1843C27.1971 24.8605 26.2799 25.2404 25.3236 25.2404C24.3673 25.2404 23.4502 24.8605 22.774 24.1843C22.0978 23.5081 21.7179 22.5909 21.7179 21.6346C21.7179 20.6783 22.0978 19.7612 22.774 19.085C23.4502 18.4087 24.3673 18.0288 25.3236 18.0288ZM39.7467 18.0288C40.703 18.0288 41.6202 18.4087 42.2964 19.085C42.9726 19.7612 43.3525 20.6783 43.3525 21.6346C43.3525 22.5909 42.9726 23.5081 42.2964 24.1843C41.6202 24.8605 40.703 25.2404 39.7467 25.2404C38.7904 25.2404 37.8733 24.8605 37.197 24.1843C36.5208 23.5081 36.1409 22.5909 36.1409 21.6346C36.1409 20.6783 36.5208 19.7612 37.197 19.085C37.8733 18.4087 38.7904 18.0288 39.7467 18.0288ZM23.5208 32.4519H41.5496C41.5496 32.4519 41.5496 41.4663 32.5352 41.4663C23.5208 41.4663 23.5208 32.4519 23.5208 32.4519Z" fill="#383838"/>
</svg>
