<svg width="28" height="43" viewBox="0 0 28 43" fill="none" xmlns="http://www.w3.org/2000/svg">
<path d="M15.5625 36.8125C15.5625 40.1966 12.1325 42.9375 7.90625 42.9375C3.68 42.9375 0.25 40.1966 0.25 36.8125C0.25 33.4284 3.68 30.6875 7.90625 30.6875C12.1325 30.6875 15.5625 33.4284 15.5625 36.8125Z" fill="#383838"/>
<path fill-rule="evenodd" clip-rule="evenodd" d="M15.5625 6.1875V36.8125H12.5V6.1875H15.5625Z" fill="#383838"/>
<path d="M12.5 5.63631C12.5004 4.92859 12.746 4.24286 13.1948 3.69571C13.6437 3.14856 14.2683 2.77377 14.9622 2.63506L24.1497 0.79756C24.5939 0.708788 25.0522 0.719632 25.4916 0.829309C25.931 0.938987 26.3407 1.14477 26.691 1.43183C27.0413 1.71889 27.3236 2.08008 27.5176 2.48938C27.7115 2.89868 27.8122 3.34589 27.8125 3.79881V9.25006L12.5 12.3126V5.63631Z" fill="#383838"/>
</svg>
