<svg width="23" height="22" viewBox="0 0 23 22" fill="none" xmlns="http://www.w3.org/2000/svg">
<path d="M14.4411 4.46533H7.85031C5.72364 4.46533 4 6.18928 4 8.31564V14.9065C4 17.0331 5.72394 18.7568 7.85061 18.7568H14.4408C16.5675 18.7568 18.2914 17.0328 18.2914 14.9062V8.31564C18.2914 6.18897 16.5675 4.46533 14.4408 4.46533H14.4411Z" stroke="white" stroke-miterlimit="10"/>
<path d="M11.1458 15.0606C13.051 15.0606 14.5955 13.5161 14.5955 11.6109C14.5955 9.70563 13.051 8.16113 11.1458 8.16113C9.24054 8.16113 7.69604 9.70563 7.69604 11.6109C7.69604 13.5161 9.24054 15.0606 11.1458 15.0606Z" stroke="white" stroke-miterlimit="10"/>
<path d="M15.3346 8.16138C15.7428 8.16138 16.0737 7.83046 16.0737 7.42224C16.0737 7.01403 15.7428 6.68311 15.3346 6.68311C14.9264 6.68311 14.5955 7.01403 14.5955 7.42224C14.5955 7.83046 14.9264 8.16138 15.3346 8.16138Z" fill="white"/>
</svg>
