<svg width="6" height="11" viewBox="0 0 6 11" fill="none" xmlns="http://www.w3.org/2000/svg">
<path d="M0.134519 0.763516L4.91646 5.50048L0.134519 10.2375C0.0489094 10.3221 0.000981418 10.4357 0.000981424 10.554C0.000981429 10.6723 0.0489095 10.7859 0.134519 10.8706C0.176101 10.9115 0.225731 10.9441 0.280506 10.9663C0.335281 10.9886 0.394097 11 0.453511 11C0.512925 11 0.571742 10.9886 0.626516 10.9663C0.681291 10.9441 0.730922 10.9115 0.772503 10.8706L5.86067 5.83126C5.95 5.74276 6 5.62407 6 5.50048C6 5.3769 5.95 5.25821 5.86067 5.16971L0.773485 0.130403C0.731872 0.0891342 0.682119 0.0563326 0.627163 0.0339355C0.572207 0.0115385 0.513161 -2.2431e-08 0.453511 -1.98236e-08C0.393861 -1.72162e-08 0.334814 0.0115385 0.279858 0.0339355C0.224902 0.0563326 0.175149 0.0891342 0.133537 0.130404C0.0479271 0.215037 -4.66459e-07 0.328652 -4.61288e-07 0.44696C-4.56117e-07 0.565269 0.0479271 0.678882 0.133537 0.763516L0.134519 0.763516Z" fill="#808080"/>
</svg>
