<svg width="250" height="99" viewBox="0 0 250 99" fill="none" xmlns="http://www.w3.org/2000/svg">
<path d="M223.384 91.4716C223.19 91.9887 223.451 92.5652 223.968 92.7592C224.486 92.9533 225.062 92.6914 225.256 92.1744L223.384 91.4716ZM217.881 91.823L218.683 91.2248L218.661 91.1957L218.637 91.1684L217.881 91.823ZM235.615 36L234.965 35.24L235.615 36ZM249 43.3025L249.999 43.3362L250 43.3193V43.3025H249ZM215.679 83.6702L215.263 82.7607L215.249 82.7672L215.235 82.7741L215.679 83.6702ZM201.164 90.8605L201.49 91.8059L201.551 91.785L201.608 91.7566L201.164 90.8605ZM197.493 81.4055L196.617 80.9237L196.598 80.9577L196.582 80.9931L197.493 81.4055ZM209.297 78.5747L210.005 77.8686L209.99 77.8537L209.974 77.8394L209.297 78.5747ZM193.36 90.8605L193.138 89.8855L193.112 89.8914L193.087 89.8986L193.36 90.8605ZM179.477 86.1613L178.521 85.8667L178.516 85.883L178.512 85.8995L179.477 86.1613ZM185.233 70.8864C185.396 70.3586 185.1 69.7989 184.572 69.6361C184.044 69.4734 183.484 69.7693 183.322 70.2971L185.233 70.8864ZM189.36 77.8387L190.352 77.7132L190.345 77.6572L190.332 77.6024L189.36 77.8387ZM188.795 83.6702L189.771 83.892L188.795 83.6702ZM186.423 85.1422L185.977 86.0369L186.423 85.1422ZM186.423 82.1982L185.651 81.5633L186.423 82.1982ZM176.638 92.8067C176.493 93.3397 176.808 93.8891 177.341 94.0337C177.874 94.1783 178.423 93.8634 178.568 93.3304L176.638 92.8067ZM164.228 91.823L163.442 92.4414L163.489 92.5009L163.544 92.5526L164.228 91.823ZM169.593 77.3291L168.83 76.6826L168.811 76.7056L168.793 76.7297L169.593 77.3291ZM165.47 87.8598L166.089 88.6454L166.107 88.6314L166.124 88.6166L165.47 87.8598ZM154.458 93.0686L153.885 93.8882L154.458 93.0686ZM158.806 76.6497L158.171 75.8773L158.806 76.6497ZM154.853 88.426L155.471 89.2119L155.522 89.1716L155.568 89.1252L154.853 88.426ZM142.146 93.5781L142.661 92.7212L142.146 93.5781ZM143.501 78.7446L142.612 78.2881L143.501 78.7446ZM147.003 79.8769L147.979 80.0926L147.981 80.0839L147.003 79.8769ZM128.817 82.7643L127.903 82.3584L127.888 82.3934L127.875 82.4295L128.817 82.7643ZM139.307 75.05C139.549 74.5536 139.343 73.9549 138.846 73.7128C138.35 73.4706 137.751 73.6767 137.509 74.1731L139.307 75.05ZM130.794 93.5781L131.525 94.26L131.535 94.2502L131.543 94.2401L130.794 93.5781ZM136.894 86.6709L137.643 87.3328L137.675 87.2972L137.702 87.2588L136.894 86.6709ZM145.704 62.0992L144.723 61.9063L144.717 61.9335L144.713 61.9609L145.704 62.0992ZM128.817 29.9976L129.028 29.02L128.992 29.0122L128.955 29.0071L128.817 29.9976ZM82.5627 51.4552L81.5788 51.2764L81.5784 51.279L82.5627 51.4552ZM102.555 71.9505L102.33 72.9247L102.357 72.9311L102.385 72.9359L102.555 71.9505ZM147.342 61.7028L147.722 62.6279L147.795 62.5979L147.862 62.5568L147.342 61.7028ZM147.85 52.814L147.503 53.752L147.517 53.7571L147.531 53.7618L147.85 52.814ZM147.237 52.5875L146.243 52.4828L147.237 52.5875ZM122.661 94.9368L121.718 95.2687L121.749 95.3581L121.797 95.44L122.661 94.9368ZM124.977 81.2922L125.898 81.6825L125.906 81.6622L125.914 81.6415L124.977 81.2922ZM115.093 75.6872L114.6 74.8173L114.548 74.8468L114.5 74.8823L115.093 75.6872ZM106.566 90.2943L105.705 90.8039L105.812 90.9835L105.981 91.1056L106.566 90.2943ZM111.648 79.4805L112.647 79.4225L112.646 79.4016L112.643 79.3808L111.648 79.4805ZM109.787 75.0356C110.021 74.5354 109.805 73.9401 109.305 73.7059C108.805 73.4717 108.21 73.6873 107.975 74.1875L109.787 75.0356ZM98.4788 93.3418L99.3966 92.9447L98.4788 93.3418ZM89.6225 94.9368L89.8737 95.9048L89.9179 95.8933L89.9609 95.8778L89.6225 94.9368ZM83.8054 85.1422L84.804 85.196L84.8043 85.1892L83.8054 85.1422ZM91.4297 72.4034L91.7177 73.361L91.4297 72.4034ZM99.949 78.9143L100.922 78.6823L99.949 78.9143ZM85.5089 93.54C84.9638 93.6284 84.5936 94.1421 84.682 94.6872C84.7705 95.2324 85.2841 95.6026 85.8293 95.5142L85.5089 93.54ZM92.2204 74.6115L92.9714 73.9512L92.9302 73.9044L92.8835 73.863L92.2204 74.6115ZM90.4132 82.1415L91.156 82.8109L91.195 82.7676L91.2288 82.7201L90.4132 82.1415ZM76.8587 90.2943L77.8195 90.0169L77.6694 89.4968L77.1518 89.3382L76.8587 90.2943ZM90.9215 62.6653L91.7796 63.1788L91.7854 63.169L91.791 63.1591L90.9215 62.6653ZM88.606 61.3631L87.9313 60.625L87.9109 60.6437L87.8916 60.6634L88.606 61.3631ZM70.5599 74.3914C70.0945 74.6887 69.9581 75.307 70.2554 75.7725C70.5526 76.2379 71.1709 76.3743 71.6364 76.077L70.5599 74.3914ZM64.7728 97.8243L64.5366 96.8526L64.4741 96.8678L64.4141 96.8908L64.7728 97.8243ZM69.0888 55.6589C69.4092 55.2092 69.3044 54.5847 68.8546 54.2642C68.4048 53.9438 67.7804 54.0486 67.4599 54.4984L69.0888 55.6589ZM54.3068 63.4754C54.1914 64.0155 54.5356 64.5469 55.0757 64.6623C55.6158 64.7778 56.1472 64.4335 56.2626 63.8934L54.3068 63.4754ZM73.8091 28.3556L73.2902 27.5007L73.1919 27.5604L73.1097 27.6408L73.8091 28.3556ZM73.809 26.7137L72.8544 27.0115L72.8589 27.0258L72.8638 27.04L73.809 26.7137ZM22.1893 2.87808L21.9024 1.92013L21.8932 1.92288L21.8841 1.92581L22.1893 2.87808ZM3.77792 55.0787L2.80789 55.3216L2.81202 55.3381L2.81671 55.3545L3.77792 55.0787ZM52.5173 74.6115L52.6885 75.5968L52.7253 75.5904L52.7614 75.5813L52.5173 74.6115ZM88.606 59.3816L89.2331 60.1605L89.2637 60.1358L89.2922 60.1089L88.606 59.3816ZM90.4132 31.1865L91.2662 30.6646L91.2136 30.5787L91.145 30.505L90.4132 31.1865ZM12.2464 89.5808C11.7014 89.6702 11.3321 90.1845 11.4215 90.7295C11.5109 91.2745 12.0252 91.6438 12.5702 91.5544L12.2464 89.5808ZM33.3713 77.3858L32.6121 76.7349L32.6099 76.7375L33.3713 77.3858ZM39.4708 58.7022L40.3377 58.2037L40.3071 58.1504L40.2702 58.1013L39.4708 58.7022ZM15.0729 47.7185L14.7828 46.7615L14.7782 46.7629L15.0729 47.7185ZM11.7972 90.2943L11.0864 90.9977L11.1238 91.0354L11.1649 91.069L11.7972 90.2943ZM79.8517 19.58L80.7539 20.0113L80.7655 19.9871L80.7757 19.9622L79.8517 19.58ZM83.0144 20.8256L83.8719 21.34L83.922 21.2565L83.955 21.165L83.0144 20.8256ZM74.6917 32.7571C74.4076 33.2308 74.5613 33.845 75.0349 34.1291C75.5085 34.4132 76.1228 34.2595 76.4069 33.7859L74.6917 32.7571ZM75.6159 41.2642L76.6092 41.3796L76.6123 41.3534L76.6139 41.327L75.6159 41.2642ZM63.6428 74.6115L64.4812 75.1567L64.4972 75.132L64.5118 75.1064L63.6428 74.6115ZM184.945 92.4926L184.982 91.4933L184.945 92.4926ZM225.256 92.1744C226.886 87.8312 229.352 85.0637 231.344 84.0503C232.34 83.5436 233.067 83.5425 233.52 83.7535C233.948 83.9526 234.431 84.4823 234.627 85.7483L236.603 85.442C236.348 83.7923 235.613 82.5215 234.364 81.9403C233.141 81.3709 231.731 81.6096 230.438 82.2676C227.85 83.5838 225.12 86.846 223.384 91.4716L225.256 92.1744ZM234.627 85.7483C234.775 86.7063 234.277 87.77 233.012 88.8576C231.766 89.9288 229.944 90.8626 227.948 91.5112C225.955 92.1584 223.869 92.4952 222.131 92.4328C220.332 92.3681 219.18 91.8914 218.683 91.2248L217.08 92.4213C218.142 93.8431 220.099 94.3611 222.059 94.4315C224.079 94.5041 226.402 94.1163 228.566 93.4134C230.725 92.7118 232.809 91.67 234.316 90.3741C235.804 89.0946 236.907 87.3998 236.603 85.442L234.627 85.7483ZM218.637 91.1684C216.942 89.2112 216.151 85.7043 216.304 81.0897C216.455 76.5275 217.522 71.0966 219.294 65.5225C222.848 54.3436 229.157 42.8395 236.265 36.76L234.965 35.24C227.458 41.6605 220.998 53.5619 217.388 64.9166C215.578 70.6093 214.464 76.2272 214.305 81.0235C214.148 85.7675 214.918 89.9289 217.126 92.4777L218.637 91.1684ZM236.265 36.76C240.325 33.2879 248 36.2547 248 43.3025H250C250 34.724 240.455 30.5445 234.965 35.24L236.265 36.76ZM248.001 43.2688C247.934 45.2522 246.694 48.3655 244.508 52.1331C242.352 55.8495 239.368 60.0492 236.005 64.1544C232.644 68.2584 228.92 72.2488 225.292 75.5509C221.651 78.8653 218.159 81.4373 215.263 82.7607L216.094 84.5798C219.269 83.1289 222.941 80.3953 226.638 77.0299C230.349 73.6523 234.139 69.5887 237.552 65.4217C240.964 61.2561 244.015 56.9679 246.238 53.1367C248.431 49.3566 249.914 45.8626 249.999 43.3362L248.001 43.2688ZM215.235 82.7741L200.72 89.9645L201.608 91.7566L216.123 84.5663L215.235 82.7741ZM200.838 89.9151C199.462 90.3894 198.544 90.4068 197.974 90.2309C197.47 90.0752 197.128 89.7362 196.931 89.1176C196.72 88.451 196.692 87.4749 196.935 86.1971C197.175 84.934 197.665 83.4511 198.404 81.8179L196.582 80.9931C195.796 82.7286 195.247 84.3655 194.97 85.8238C194.696 87.2674 194.673 88.6143 195.025 89.7228C195.392 90.8794 196.172 91.7676 197.384 92.1419C198.531 92.4958 199.924 92.3458 201.49 91.8059L200.838 89.9151ZM198.369 81.8874C199.685 79.4952 201.535 78.1909 203.366 77.801C205.195 77.4117 207.1 77.91 208.619 79.3101L209.974 77.8394C207.992 76.0122 205.43 75.3167 202.95 75.8449C200.472 76.3726 198.171 78.0973 196.617 80.9237L198.369 81.8874ZM204.863 87.5483C207.546 86.0813 209.508 84.5028 210.49 82.8874C210.991 82.0637 211.266 81.1807 211.19 80.2792C211.114 79.3668 210.689 78.5544 210.005 77.8686L208.589 79.2808C209.001 79.6941 209.167 80.0836 209.197 80.4457C209.228 80.8187 209.125 81.2828 208.781 81.8486C208.074 83.0124 206.483 84.3828 203.903 85.7935L204.863 87.5483ZM203.903 85.7935C201.344 87.1927 198.651 88.2179 196.586 88.8946C195.557 89.2321 194.689 89.481 194.081 89.6451C193.778 89.7271 193.539 89.7879 193.377 89.8278C193.297 89.8477 193.235 89.8625 193.195 89.8721C193.175 89.8769 193.16 89.8804 193.15 89.8826C193.145 89.8838 193.142 89.8845 193.14 89.885C193.139 89.8853 193.138 89.8854 193.138 89.8855C193.137 89.8855 193.137 89.8856 193.137 89.8856L193.137 89.8855C193.138 89.8855 193.138 89.8855 193.36 90.8605C193.582 91.8356 193.582 91.8355 193.582 91.8355C193.582 91.8355 193.582 91.8354 193.583 91.8354C193.583 91.8353 193.583 91.8352 193.584 91.8351C193.585 91.8348 193.586 91.8345 193.588 91.8341C193.592 91.8333 193.597 91.8322 193.603 91.8307C193.615 91.8278 193.633 91.8236 193.656 91.8181C193.703 91.8071 193.771 91.7908 193.858 91.7693C194.032 91.7262 194.284 91.662 194.603 91.576C195.239 91.4042 196.141 91.1453 197.209 90.7951C199.341 90.0963 202.159 89.0267 204.863 87.5483L203.903 85.7935ZM180.432 86.456L182.335 80.2848L180.424 79.6955L178.521 85.8667L180.432 86.456ZM182.335 80.2848L185.233 70.8864L183.322 70.2971L180.424 79.6955L182.335 80.2848ZM182.119 80.6631C183.356 79.3035 184.391 78.3173 185.251 77.6473C186.125 76.9658 186.745 76.6699 187.156 76.586C187.498 76.5162 187.652 76.5937 187.783 76.7225C187.978 76.9131 188.205 77.3193 188.389 78.075L190.332 77.6024C190.115 76.7113 189.773 75.872 189.182 75.2935C188.528 74.6531 187.68 74.4378 186.756 74.6265C185.9 74.8012 184.989 75.3152 184.021 76.0699C183.038 76.8362 181.918 77.9127 180.64 79.3171L182.119 80.6631ZM189.36 77.8387C188.368 77.9642 188.368 77.9639 188.368 77.9636C188.368 77.9635 188.368 77.9633 188.368 77.9631C188.368 77.9628 188.368 77.9625 188.368 77.9622C188.368 77.9617 188.368 77.9614 188.368 77.9611C188.368 77.9606 188.368 77.9606 188.368 77.9612C188.368 77.9622 188.368 77.9653 188.369 77.9705C188.37 77.9809 188.372 77.9994 188.374 78.0259C188.379 78.079 188.385 78.1642 188.391 78.2803C188.402 78.5124 188.41 78.8681 188.392 79.3378C188.358 80.2769 188.224 81.6727 187.82 83.4485L189.771 83.892C190.204 81.9877 190.352 80.4676 190.391 79.4111C190.41 78.8829 190.402 78.4707 190.388 78.1844C190.382 78.0413 190.373 77.9297 190.366 77.8507C190.363 77.8112 190.36 77.78 190.357 77.757C190.356 77.7455 190.355 77.7361 190.354 77.7288C190.354 77.7252 190.353 77.722 190.353 77.7194C190.353 77.7181 190.353 77.717 190.353 77.7159C190.353 77.7154 190.352 77.7149 190.352 77.7145C190.352 77.7142 190.352 77.7139 190.352 77.7138C190.352 77.7135 190.352 77.7132 189.36 77.8387ZM187.82 83.4485C187.642 84.233 187.404 84.3608 187.387 84.369C187.372 84.3762 187.236 84.4304 186.87 84.2476L185.977 86.0369C186.586 86.341 187.43 86.5677 188.254 86.1713C189.076 85.776 189.536 84.9243 189.771 83.892L187.82 83.4485ZM186.87 84.2476C186.841 84.2333 186.742 84.1952 186.763 83.8769C186.785 83.5433 186.951 83.1307 187.196 82.833L185.651 81.5633C185.166 82.1531 184.819 82.9562 184.767 83.7446C184.714 84.5483 184.979 85.5386 185.977 86.0369L186.87 84.2476ZM187.196 82.833C188.702 81 189.476 79.8606 189.878 79.1538C190.079 78.7996 190.198 78.5353 190.267 78.3324C190.302 78.2297 190.326 78.1357 190.341 78.0481C190.349 78.0039 190.355 77.96 190.358 77.9164C190.359 77.8946 190.36 77.8726 190.36 77.8506C190.36 77.8396 190.36 77.8285 190.36 77.8174C190.36 77.8119 190.36 77.8063 190.359 77.8007C190.359 77.7979 190.359 77.7952 190.359 77.7924C190.359 77.791 190.359 77.7889 190.359 77.7882C190.359 77.7861 190.359 77.784 189.36 77.8387C188.362 77.8934 188.362 77.8913 188.361 77.8892C188.361 77.8885 188.361 77.8865 188.361 77.8851C188.361 77.8823 188.361 77.8796 188.361 77.8769C188.361 77.8715 188.361 77.8663 188.36 77.8611C188.36 77.8507 188.36 77.8408 188.36 77.8312C188.36 77.8122 188.361 77.7948 188.362 77.7793C188.364 77.7482 188.368 77.7237 188.371 77.7067C188.377 77.6735 188.381 77.6653 188.373 77.6882C188.357 77.7365 188.3 77.8828 188.139 78.1655C187.817 78.7325 187.122 79.7729 185.651 81.5633L187.196 82.833ZM178.512 85.8995L176.638 92.8067L178.568 93.3304L180.442 86.4232L178.512 85.8995ZM180.612 79.3493C175.8 85.1136 172.442 88.7671 169.898 90.6014C168.632 91.5146 167.679 91.8929 166.935 91.9382C166.247 91.9801 165.607 91.7448 164.912 91.0934L163.544 92.5526C164.551 93.4968 165.708 94.0166 167.056 93.9345C168.348 93.8558 169.671 93.2311 171.068 92.2235C173.851 90.2165 177.366 86.358 182.147 80.631L180.612 79.3493ZM165.014 91.2046C164.602 90.6813 164.356 90.2057 164.26 89.6745C164.164 89.1395 164.202 88.4534 164.518 87.4882C165.165 85.5105 166.888 82.6096 170.394 77.9286L168.793 76.7297C165.289 81.408 163.377 84.5427 162.617 86.8664C162.229 88.0519 162.121 89.083 162.292 90.0303C162.464 90.9815 162.901 91.7533 163.442 92.4414L165.014 91.2046ZM170.356 77.9757C171.018 77.1951 171.46 77.1816 171.504 77.19C171.509 77.1909 171.504 77.1903 171.497 77.1857C171.492 77.1816 171.501 77.1859 171.518 77.215C171.556 77.2794 171.624 77.4578 171.608 77.8125C171.577 78.5281 171.213 79.7126 170.15 81.3234C169.099 82.918 167.404 84.8682 164.817 87.1031L166.124 88.6166C168.813 86.2938 170.643 84.2089 171.82 82.4244C172.986 80.6561 173.553 79.1176 173.606 77.9C173.633 77.288 173.532 76.6972 173.245 76.2066C172.946 75.6941 172.468 75.3377 171.879 75.2254C170.767 75.0136 169.66 75.7032 168.83 76.6826L170.356 77.9757ZM164.852 87.0743C161.434 89.7667 159.228 91.322 157.675 92.0597C156.908 92.4238 156.376 92.5508 155.988 92.5562C155.631 92.5612 155.339 92.4649 155.03 92.2489L153.885 93.8882C154.502 94.32 155.199 94.5675 156.016 94.556C156.802 94.545 157.629 94.2953 158.533 93.8663C160.319 93.0177 162.693 91.3209 166.089 88.6454L164.852 87.0743ZM155.03 92.2489C154.764 92.0624 154.423 91.4737 154.314 90.2385C154.211 89.0742 154.34 87.5819 154.71 85.9785C155.456 82.7458 157.117 79.3335 159.441 77.4222L158.171 75.8773C155.379 78.1729 153.562 82.0592 152.761 85.5288C152.358 87.2766 152.196 88.9864 152.322 90.4141C152.441 91.7708 152.848 93.164 153.885 93.8882L155.03 92.2489ZM159.441 77.4222C159.523 77.3552 159.819 77.2539 160.132 77.3355C160.354 77.3932 160.545 77.5251 160.601 77.9183C160.671 78.4167 160.522 79.4015 159.553 81.0654C158.598 82.7041 156.916 84.8855 154.138 87.7269L155.568 89.1252C158.409 86.22 160.213 83.9061 161.281 82.072C162.335 80.2631 162.745 78.7974 162.581 77.6384C162.402 76.3744 161.566 75.6423 160.636 75.4001C159.798 75.1819 158.819 75.3448 158.171 75.8773L159.441 77.4222ZM154.234 87.6402C152.412 89.0746 149.935 90.6984 147.628 91.7696C146.472 92.3062 145.401 92.6847 144.5 92.8455C143.573 93.011 142.988 92.9178 142.661 92.7212L141.63 94.4351C142.571 95.001 143.742 95.0125 144.851 94.8144C145.987 94.6116 147.233 94.1581 148.47 93.5835C150.949 92.4324 153.558 90.7177 155.471 89.2119L154.234 87.6402ZM142.661 92.7212C141.731 92.1614 141.191 91.561 140.899 90.9121C140.604 90.2581 140.512 89.4476 140.668 88.3844C140.99 86.1975 142.301 83.2736 144.391 79.2011L142.612 78.2881C140.551 82.3036 139.067 85.5227 138.69 88.0936C138.496 89.4093 138.579 90.6314 139.075 91.7337C139.574 92.8413 140.443 93.721 141.63 94.4351L142.661 92.7212ZM144.391 79.2011C144.754 78.4927 145.137 78.0661 145.443 77.8458C145.594 77.7371 145.711 77.6887 145.788 77.6695C145.862 77.6511 145.893 77.6602 145.895 77.6607C145.897 77.6615 145.9 77.6624 145.904 77.665C145.908 77.6678 145.918 77.6752 145.933 77.692C145.964 77.7262 146.018 77.8051 146.065 77.9601C146.162 78.2792 146.201 78.8364 146.025 79.6699L147.981 80.0839C148.2 79.0491 148.206 78.1271 147.979 77.3794C147.749 76.6195 147.243 75.966 146.444 75.7378C145.671 75.5167 144.896 75.7743 144.273 76.2233C143.644 76.6771 143.076 77.3828 142.612 78.2881L144.391 79.2011ZM146.026 79.6612C145.643 81.3978 144.426 83.4413 142.701 85.129C140.978 86.8148 138.862 88.0333 136.775 88.2823L137.012 90.2682C139.67 89.9511 142.172 88.4438 144.1 86.5587C146.025 84.6756 147.491 82.303 147.979 80.0926L146.026 79.6612ZM136.775 88.2823C134.621 88.5394 132.497 87.9886 131.118 86.976C130.435 86.4747 129.965 85.8842 129.729 85.2542C129.498 84.6377 129.467 83.9218 129.76 83.0992L127.875 82.4295C127.433 83.6734 127.452 84.8754 127.856 85.9556C128.256 87.0224 129.007 87.9074 129.934 88.588C131.774 89.9392 134.422 90.5773 137.012 90.2682L136.775 88.2823ZM129.731 83.1703C130.423 81.6126 131.047 80.3642 131.639 79.4105C132.237 78.4455 132.759 77.8554 133.218 77.5386C133.635 77.2509 133.992 77.1903 134.385 77.283C134.837 77.3895 135.432 77.7231 136.213 78.4484L137.574 76.9829C136.684 76.1561 135.784 75.5579 134.844 75.3364C133.847 75.1012 132.917 75.3166 132.083 75.8922C131.291 76.4386 130.595 77.2994 129.939 78.3562C129.277 79.4242 128.61 80.7687 127.903 82.3584L129.731 83.1703ZM137.792 78.1541L139.307 75.05L137.509 74.1731L135.995 77.2772L137.792 78.1541ZM135.96 77.3567L129.861 93.2192L131.727 93.937L137.827 78.0745L135.96 77.3567ZM131.543 94.2401L137.643 87.3328L136.144 86.009L130.044 92.9162L131.543 94.2401ZM137.702 87.2588C143.475 79.3164 145.171 73.1385 146.694 62.2376L144.713 61.9609C143.213 72.6983 141.587 78.5123 136.085 86.083L137.702 87.2588ZM128.955 29.0071C117.731 27.4494 106.665 29.0238 98.0221 32.9542C89.3937 36.8778 83.0418 43.2249 81.5788 51.2764L83.5466 51.634C84.851 44.4555 90.5707 38.5396 98.85 34.7748C107.114 31.0167 117.793 29.4772 128.68 30.9881L128.955 29.0071ZM81.5784 51.279C80.4285 57.7018 82.1559 62.4083 86.0316 65.8676C89.8208 69.2496 95.5771 71.3603 102.33 72.9247L102.781 70.9763C96.0926 69.4267 90.7577 67.405 87.3634 64.3755C84.0557 61.4232 82.5074 57.439 83.5471 51.6314L81.5784 51.279ZM102.385 72.9359C113.826 74.9113 124.12 72.3181 147.722 62.6279L146.962 60.7778C123.341 70.4756 113.539 72.8321 102.726 70.965L102.385 72.9359ZM147.862 62.5568C149.515 61.5496 150.781 60.5578 151.644 59.5798C152.502 58.6073 153.036 57.5627 153.037 56.4734C153.037 55.3514 152.473 54.4087 151.613 53.6646C150.768 52.9332 149.585 52.3429 148.169 51.8662L147.531 53.7618C148.822 54.1962 149.733 54.6829 150.304 55.1771C150.861 55.6586 151.037 56.0898 151.037 56.4728C151.037 56.8884 150.83 57.4796 150.145 58.2562C149.464 59.0274 148.382 59.8979 146.821 60.8489L147.862 62.5568ZM146.685 62.2922C147.375 58.7837 147.927 55.5899 148.232 52.6922L146.243 52.4828C145.947 55.2917 145.409 58.4171 144.723 61.9063L146.685 62.2922ZM148.232 52.6922C148.894 46.4 148.417 41.3141 145.466 37.3531C142.525 33.4061 137.295 30.8007 129.028 29.02L128.607 30.9751C136.729 32.7246 141.363 35.1931 143.862 38.548C146.351 41.889 146.89 46.333 146.243 52.4828L148.232 52.6922ZM146.89 53.5255L147.503 53.752L148.197 51.876L147.584 51.6495L146.89 53.5255ZM130.062 92.8962C129.152 93.8732 128.378 94.6811 127.683 95.2919C126.978 95.9123 126.44 96.2523 126.012 96.3851C125.649 96.4978 125.359 96.4684 125.02 96.2527C124.622 95.9994 124.124 95.4616 123.526 94.4337L121.797 95.44C122.457 96.5734 123.151 97.4337 123.946 97.9398C124.8 98.4837 125.704 98.5752 126.605 98.2951C127.442 98.0351 128.238 97.4685 129.005 96.7933C129.783 96.1086 130.619 95.2319 131.525 94.26L130.062 92.8962ZM123.605 94.605C123.075 93.0977 122.869 91.7663 123.158 89.9058C123.456 87.9903 124.281 85.4951 125.898 81.6825L124.056 80.9019C122.429 84.7398 121.52 87.4252 121.182 89.5985C120.835 91.8268 121.093 93.4925 121.718 95.2687L123.605 94.605ZM125.914 81.6415C126.508 80.0493 126.526 78.5479 126.036 77.2522C125.547 75.9611 124.589 74.9653 123.39 74.3188C121.009 73.0341 117.648 73.089 114.6 74.8173L115.587 76.557C118.13 75.1148 120.755 75.1696 122.441 76.0789C123.275 76.5293 123.87 77.179 124.165 77.9597C124.459 78.7358 124.491 79.7326 124.04 80.9429L125.914 81.6415ZM114.5 74.8823C110.866 77.5621 108.085 80.4014 106.486 83.0972C104.9 85.77 104.358 88.5302 105.705 90.8039L107.426 89.7847C106.626 88.435 106.777 86.5256 108.206 84.1177C109.621 81.7327 112.177 79.0802 115.687 76.492L114.5 74.8823ZM105.981 91.1056C106.933 91.7913 107.999 91.4653 108.757 90.9274C109.519 90.3858 110.225 89.4886 110.812 88.4079C111.997 86.2265 112.855 83.0117 112.647 79.4225L110.65 79.5384C110.837 82.7624 110.058 85.6056 109.054 87.4533C108.547 88.3872 108.02 88.9974 107.599 89.2967C107.391 89.4442 107.256 89.4831 107.196 89.4905C107.16 89.4949 107.161 89.4906 107.15 89.4829L105.981 91.1056ZM112.643 79.3808C112.551 78.4564 112.414 77.6652 112.189 77.0413C111.965 76.4237 111.599 75.8164 110.945 75.5019C110.288 75.1857 109.593 75.2868 108.996 75.4969C108.395 75.7083 107.738 76.0843 107.031 76.5515L108.134 78.22C108.803 77.7777 109.296 77.5115 109.66 77.3835C110.027 77.2542 110.109 77.3187 110.079 77.3043C110.052 77.2916 110.164 77.3244 110.308 77.7208C110.448 78.1109 110.566 78.7075 110.653 79.5802L112.643 79.3808ZM107.975 74.1875L106.676 76.9617L108.488 77.8098L109.787 75.0356L107.975 74.1875ZM107.582 77.3858C106.645 77.0361 106.645 77.0361 106.645 77.0362C106.645 77.0363 106.645 77.0365 106.645 77.0368C106.645 77.0373 106.644 77.0381 106.644 77.0392C106.643 77.0415 106.642 77.0449 106.64 77.0495C106.637 77.0586 106.632 77.0725 106.625 77.0909C106.611 77.1276 106.59 77.1824 106.563 77.2539C106.509 77.3968 106.429 77.6066 106.327 77.8726C106.122 78.4045 105.828 79.1608 105.469 80.0565C104.751 81.8496 103.779 84.193 102.756 86.41C101.725 88.6457 100.673 90.6874 99.7992 91.9176C99.5839 92.2206 99.393 92.4548 99.2295 92.6231C99.0574 92.8002 98.9584 92.8596 98.9342 92.8708C98.9276 92.8739 99.0835 92.8067 99.2848 92.9013C99.45 92.9789 99.4552 93.0801 99.3966 92.9447L97.5611 93.739C97.7138 94.0919 97.975 94.4957 98.4345 94.7116C98.9302 94.9443 99.4186 94.851 99.7765 94.6848C100.117 94.5268 100.414 94.2738 100.664 94.0169C100.922 93.751 101.179 93.4293 101.43 93.076C102.421 91.6806 103.539 89.4892 104.573 87.2475C105.615 84.9872 106.601 82.6091 107.326 80.8001C107.688 79.8946 107.986 79.1296 108.194 78.5906C108.297 78.3211 108.378 78.1079 108.434 77.9619C108.461 77.8888 108.483 77.8326 108.497 77.7944C108.504 77.7753 108.509 77.7607 108.513 77.7508C108.515 77.7459 108.516 77.7421 108.517 77.7395C108.518 77.7382 108.518 77.7373 108.519 77.7366C108.519 77.7362 108.519 77.7359 108.519 77.7358C108.519 77.7355 108.519 77.7354 107.582 77.3858ZM99.3966 92.9447C99.4284 93.0183 99.4421 93.0766 99.4469 93.0986C99.4528 93.1256 99.4552 93.1439 99.4558 93.1492C99.457 93.1594 99.4557 93.1528 99.4551 93.1236C99.4538 93.0668 99.4558 92.9704 99.466 92.8355C99.4863 92.5682 99.5355 92.1925 99.6295 91.7518C99.8186 90.8647 100.177 89.7716 100.795 88.7887L99.1026 87.7235C98.3236 88.9615 97.8955 90.2931 97.6735 91.3347C97.5618 91.8583 97.4992 92.3228 97.4718 92.6842C97.4581 92.8637 97.4524 93.0288 97.4556 93.1696C97.4572 93.2392 97.4613 93.3154 97.4705 93.3912C97.4768 93.4425 97.4949 93.586 97.5611 93.739L99.3966 92.9447ZM100.795 88.7887C102.23 86.5088 104.123 83.8119 105.665 81.6757C106.435 80.6096 107.114 79.6871 107.601 79.0312C107.844 78.7034 108.039 78.4423 108.173 78.2634C108.24 78.1739 108.292 78.1051 108.327 78.0586C108.345 78.0354 108.358 78.0179 108.367 78.0061C108.371 78.0003 108.374 77.9959 108.377 77.993C108.378 77.9915 108.379 77.9905 108.379 77.9898C108.379 77.9894 108.38 77.9892 108.38 77.989C108.38 77.9889 108.38 77.9889 108.38 77.9888C108.38 77.9888 108.38 77.9888 107.582 77.3858C106.784 76.7827 106.784 76.7827 106.784 76.7828C106.784 76.7829 106.784 76.783 106.784 76.7831C106.784 76.7833 106.784 76.7836 106.783 76.784C106.783 76.7849 106.782 76.786 106.781 76.7876C106.778 76.7908 106.775 76.7954 106.77 76.8015C106.761 76.8138 106.747 76.8319 106.729 76.8556C106.694 76.9031 106.641 76.9731 106.573 77.0637C106.437 77.245 106.24 77.5087 105.995 77.8393C105.504 78.5006 104.819 79.4304 104.044 80.5051C102.495 82.6503 100.572 85.3885 99.1026 87.7235L100.795 88.7887ZM106.764 76.8111L99.1306 87.6814L100.767 88.8307L108.4 77.9604L106.764 76.8111ZM99.2715 87.5205C95.2893 91.188 93.1399 92.609 89.284 93.9959L89.9609 95.8778C94.1434 94.3735 96.517 92.7763 100.626 88.9916L99.2715 87.5205ZM89.3713 93.9689C88.2069 94.2711 87.3886 94.2882 86.814 94.1313C86.2864 93.9874 85.8817 93.6755 85.5556 93.0896C85.2085 92.466 84.954 91.5314 84.8242 90.1911C84.6954 88.8617 84.6955 87.2078 84.8039 85.196L82.8068 85.0883C82.6959 87.1455 82.6909 88.9119 82.8335 90.384C82.9751 91.8451 83.2685 93.0928 83.808 94.0622C84.3684 95.0692 85.1889 95.761 86.2875 96.0608C87.339 96.3478 88.5478 96.2488 89.8737 95.9048L89.3713 93.9689ZM91.7177 73.361C93.0814 72.9509 94.5144 72.9769 95.7565 73.7239C96.9992 74.4713 98.2385 76.0533 98.9762 79.1463L100.922 78.6823C100.106 75.2644 98.6393 73.1239 96.7872 72.01C94.9344 70.8957 92.8843 70.9217 91.1417 71.4458L91.7177 73.361ZM98.9762 79.1463C99.1103 79.7083 98.9368 80.793 98.2589 82.2934C97.6073 83.7354 96.5714 85.382 95.2623 86.9725C92.6152 90.1887 89.0266 92.9692 85.5089 93.54L85.8293 95.5142C90.0489 94.8295 94.0321 91.6144 96.8065 88.2435C98.2082 86.5405 99.3455 84.7456 100.081 83.1169C100.791 81.5465 101.22 79.9311 100.922 78.6823L98.9762 79.1463ZM84.8043 85.1892C84.9454 82.1941 86.1165 79.4476 87.5529 77.323L85.896 76.2028C84.3082 78.5513 82.9689 81.647 82.8065 85.0951L84.8043 85.1892ZM87.5529 77.323C88.321 76.1869 89.1527 75.2472 89.9163 74.5586C90.7023 73.8499 91.3423 73.4739 91.7177 73.361L91.1417 71.4458C90.3485 71.6843 89.4462 72.2895 88.5769 73.0733C87.6852 73.8774 86.7487 74.9417 85.896 76.2028L87.5529 77.323ZM87.41 77.4909C88.9352 76.0549 89.8595 75.3706 90.4888 75.1274C90.7676 75.0197 90.929 75.0237 91.0353 75.0469C91.1523 75.0724 91.3163 75.1466 91.5573 75.3601L92.8835 73.863C92.4861 73.511 92.0222 73.2152 91.4618 73.0929C90.8907 72.9682 90.3253 73.0465 89.768 73.2619C88.725 73.6648 87.5397 74.6217 86.0389 76.0348L87.41 77.4909ZM91.4694 75.2718C92.0112 75.8881 92.1218 76.6191 91.7945 77.6679C91.4505 78.77 90.6626 80.0615 89.5975 81.5629L91.2288 82.7201C92.2993 81.211 93.257 79.6951 93.7037 78.2637C94.167 76.7789 94.1134 75.2501 92.9714 73.9512L91.4694 75.2718ZM89.6703 81.472C86.683 84.787 83.5394 87.3313 81.1011 88.7525C79.8667 89.472 78.8917 89.8569 78.2489 89.9568C77.9264 90.007 77.7869 89.9692 77.7601 89.9583C77.7556 89.9565 77.7756 89.9645 77.7987 89.9903C77.8217 90.016 77.824 90.0326 77.8195 90.0169L75.898 90.5716C76.0656 91.1522 76.4582 91.5878 77.0063 91.8108C77.503 92.0129 78.052 92.0115 78.5562 91.9331C79.5668 91.776 80.798 91.2441 82.1083 90.4804C84.7594 88.9351 88.0595 86.2471 91.156 82.8109L89.6703 81.472ZM77.1518 89.3382C77.4555 89.4313 77.6261 89.6544 77.6982 89.8221C77.73 89.8963 77.7426 89.9569 77.7479 89.991C77.7534 90.0261 77.7536 90.0486 77.7535 90.0538C77.7535 90.0617 77.7532 90.0399 77.7641 89.9779C77.7745 89.919 77.7922 89.8399 77.8198 89.7382C77.9339 89.3182 78.1712 88.6777 78.5319 87.8313C79.2474 86.1527 80.3856 83.8085 81.783 81.0989C84.5749 75.6858 88.3652 68.8843 91.7796 63.1788L90.0634 62.1518C86.6289 67.8911 82.8179 74.7293 80.0055 80.1822C78.6009 82.9055 77.4364 85.3008 76.692 87.0472C76.3229 87.9132 76.0411 88.6566 75.8897 89.2142C75.8172 89.4814 75.754 89.7776 75.7536 90.0504C75.7533 90.184 75.7668 90.3933 75.8605 90.6114C75.9674 90.8602 76.1907 91.1354 76.5657 91.2504L77.1518 89.3382ZM91.791 63.1591C92.1543 62.5195 92.3707 61.8715 92.3564 61.2635C92.3413 60.6214 92.0551 59.9935 91.431 59.6532C90.8568 59.34 90.2008 59.3842 89.6432 59.5661C89.0708 59.753 88.4876 60.1165 87.9313 60.625L89.2806 62.1012C89.6843 61.7323 90.0268 61.5448 90.2637 61.4675C90.5155 61.3853 90.5526 61.4522 90.4734 61.4091C90.4283 61.3844 90.3888 61.3441 90.3661 61.3024C90.3461 61.2657 90.3558 61.2593 90.357 61.3105C90.3597 61.4271 90.3133 61.7112 90.0519 62.1715L91.791 63.1591ZM87.8916 60.6634C85.2286 63.382 82.9957 65.4399 80.7463 67.2675L82.0076 68.8197C84.3286 66.9338 86.6176 64.8221 89.3203 62.0629L87.8916 60.6634ZM80.7463 67.2675C77.7574 69.6962 74.7192 71.7352 70.5599 74.3914L71.6364 76.077C75.8086 73.4125 78.9262 71.3235 82.0076 68.8197L80.7463 67.2675ZM80.5632 68.6249C80.5478 68.6033 80.6015 68.671 80.6193 68.9402C80.636 69.1944 80.6153 69.5451 80.5419 69.9986C80.3954 70.9041 80.061 72.0879 79.5625 73.477C78.5686 76.2468 76.9718 79.6976 75.1233 83.1118C73.2748 86.5256 71.1937 89.8678 69.2423 92.4279C68.2656 93.7093 67.3375 94.7734 66.5021 95.5489C65.6409 96.3482 64.9784 96.7452 64.5366 96.8526L65.0089 98.796C65.965 98.5637 66.9389 97.8722 67.8627 97.0147C68.8123 96.1333 69.8177 94.9722 70.8329 93.6403C72.8653 90.9739 75.0012 87.5376 76.882 84.064C78.7626 80.5907 80.407 77.045 81.445 74.1525C81.9625 72.7103 82.3417 71.3964 82.5162 70.3181C82.6034 69.7797 82.6451 69.2669 82.6149 68.8087C82.5857 68.3655 82.4831 67.8718 82.1907 67.4624L80.5632 68.6249ZM54.4153 87.9575C56.9112 92.3502 58.7455 95.2623 60.2831 96.9584C61.0556 97.8105 61.8213 98.4342 62.6342 98.7556C63.4921 99.0948 64.326 99.0672 65.1314 98.7578L64.4141 96.8908C64.0434 97.0332 63.7291 97.0378 63.3696 96.8957C62.9652 96.7358 62.4445 96.3648 61.7648 95.6151C60.398 94.1074 58.6643 91.3872 56.1542 86.9694L54.4153 87.9575ZM67.4599 54.4984C67.4131 54.5641 67.3743 54.6384 67.3734 54.6399C67.3582 54.668 67.3403 54.702 67.3211 54.7391C67.2821 54.8142 67.2296 54.9173 67.1653 55.0447C67.0364 55.3003 66.855 55.6638 66.6293 56.1186C66.1776 57.0286 65.5454 58.3102 64.7943 59.8379C63.2919 62.8936 61.312 66.9371 59.3449 70.969C57.3779 75.0008 55.423 79.0222 53.9709 82.0333C53.2451 83.5384 52.6438 84.7933 52.2292 85.6714C52.0223 86.1096 51.8598 86.4584 51.751 86.6989C51.6975 86.8172 51.6526 86.9189 51.6214 86.9949C51.6076 87.0282 51.5872 87.079 51.5702 87.1309C51.5658 87.1442 51.5405 87.219 51.5266 87.3133C51.5244 87.3286 51.4918 87.5112 51.5522 87.7294C51.5996 87.8631 51.7973 88.1583 51.9627 88.296C52.1769 88.404 52.5911 88.4608 52.7694 88.4311L52.2653 86.4957C52.4429 86.4663 52.8565 86.523 53.0702 86.6307C53.2351 86.7681 53.4325 87.0627 53.4797 87.1956C53.5397 87.4123 53.5071 87.5923 53.5054 87.6041C53.4977 87.6567 53.4873 87.6963 53.4831 87.7122C53.4778 87.7317 53.4731 87.7463 53.4707 87.7538C53.4634 87.7761 53.46 87.7823 53.4708 87.7563C53.4884 87.7134 53.5216 87.6374 53.5733 87.523C53.675 87.2981 53.8318 86.9614 54.0377 86.5253C54.4487 85.6549 55.0471 84.406 55.7724 82.9021C57.2226 79.895 59.1759 75.8767 61.1424 71.846C63.1088 67.8155 65.0878 63.7739 66.5891 60.7204C67.3398 59.1935 67.9707 57.9145 68.4208 57.0077C68.6459 56.5541 68.8251 56.1952 68.951 55.9455C69.0142 55.8203 69.0627 55.7251 69.0964 55.6601C69.1135 55.6271 69.1249 55.6056 69.1316 55.5932C69.1527 55.5542 69.1285 55.6031 69.0888 55.6589L67.4599 54.4984ZM52.7694 88.4311C52.683 88.4537 52.6196 88.4555 52.6553 88.4527C52.6648 88.452 52.6867 88.4507 52.7243 88.4493C52.7984 88.4466 52.9034 88.4447 53.0339 88.4436C53.2932 88.4415 53.6268 88.4429 53.9598 88.4458C54.2917 88.4487 54.6185 88.4531 54.8627 88.4567C54.9847 88.4585 55.0858 88.4602 55.1564 88.4614C55.1917 88.462 55.2194 88.4624 55.2381 88.4628C55.2475 88.4629 55.2547 88.4631 55.2595 88.4631C55.2619 88.4632 55.2637 88.4632 55.2649 88.4632C55.2655 88.4632 55.2659 88.4633 55.2662 88.4633C55.2663 88.4633 55.2664 88.4633 55.2665 88.4633C55.2665 88.4633 55.2666 88.4633 55.2666 88.4633C55.2666 88.4633 55.2666 88.4633 55.2847 87.4634C55.3028 86.4636 55.3028 86.4636 55.3028 86.4636C55.3027 86.4636 55.3027 86.4636 55.3027 86.4636C55.3026 86.4636 55.3024 86.4636 55.3023 86.4636C55.3019 86.4636 55.3014 86.4636 55.3008 86.4636C55.2995 86.4635 55.2976 86.4635 55.2951 86.4635C55.2901 86.4634 55.2827 86.4632 55.2731 86.4631C55.2539 86.4627 55.2257 86.4622 55.1899 86.4616C55.1183 86.4604 55.0159 86.4588 54.8925 86.4569C54.646 86.4533 54.3147 86.4488 53.9773 86.4459C53.6409 86.4429 53.2939 86.4414 53.0175 86.4437C52.8801 86.4448 52.7534 86.4469 52.6515 86.4506C52.6012 86.4525 52.549 86.455 52.5009 86.4587C52.4789 86.4604 52.3742 86.4674 52.2653 86.4957L52.7694 88.4311ZM56.2626 63.8934C58.1935 54.8595 60.2417 48.6336 63.0448 43.4407C65.8441 38.2547 69.4263 34.0425 74.5084 29.0704L73.1097 27.6408C67.9589 32.6801 64.2193 37.0542 61.2848 42.4907C58.354 47.9202 56.2565 54.353 54.3068 63.4754L56.2626 63.8934ZM74.7637 26.416C71.0745 14.5889 62.5506 7.03584 52.6204 3.16409C42.7121 -0.699088 31.3705 -0.91575 21.9024 1.92013L22.4763 3.83603C31.5325 1.12349 42.4158 1.33203 51.8939 5.02747C61.3499 8.71433 69.3738 15.8533 72.8544 27.0115L74.7637 26.416ZM21.8841 1.92581C11.2566 5.33247 4.79888 12.197 1.87305 21.5217C-1.03241 30.7815 -0.432681 42.3851 2.80789 55.3216L4.74794 54.8357C1.54976 42.0683 1.03266 30.8805 3.78132 22.1205C6.50962 13.4253 12.477 7.04152 22.4946 3.83035L21.8841 1.92581ZM2.81671 55.3545C6.17113 67.0442 13.3264 73.1002 22.372 75.6986C31.3244 78.2702 42.0702 77.4418 52.6885 75.5968L52.3462 73.6263C41.7853 75.4613 31.4183 76.2163 22.9242 73.7763C14.5234 71.3631 7.89847 65.8127 4.73912 54.8028L2.81671 55.3545ZM52.7614 75.5813C73.8324 70.2785 80.9736 66.8109 89.2331 60.1605L87.9788 58.6027C80.044 64.9916 73.2232 68.3694 52.2733 73.6418L52.7614 75.5813ZM89.2922 60.1089C97.9731 51.9178 96.5958 39.3763 91.2662 30.6646L89.5601 31.7083C94.6215 39.9816 95.6409 51.3686 87.9197 58.6542L89.2922 60.1089ZM91.145 30.505C88.5664 27.7357 86.0174 25.7653 83.0844 25.1338C80.1147 24.4945 76.9663 25.2696 73.2902 27.5007L74.3279 29.2105C77.7573 27.129 80.3753 26.5964 82.6635 27.089C84.9883 27.5896 87.1886 29.1909 89.6813 31.8679L91.145 30.505ZM12.5702 91.5544C16.9098 90.8425 20.4862 89.6187 23.9044 87.4672C27.3086 85.3244 30.5071 82.2921 34.1327 78.0341L32.6099 76.7375C29.0483 80.9204 26.0014 83.7841 22.839 85.7746C19.6905 87.7563 16.3789 88.9029 12.2464 89.5808L12.5702 91.5544ZM34.1305 78.0366C38.0436 73.4725 40.4655 70.0182 41.4676 66.9554C42.5074 63.7776 41.9995 61.0937 40.3377 58.2037L38.6039 59.2006C40.0426 61.7027 40.3962 63.7985 39.5668 66.3334C38.6997 68.9834 36.5216 72.1749 32.6121 76.7349L34.1305 78.0366ZM40.2702 58.1013C36.5475 53.1486 32.7599 49.5232 28.5864 47.5336C24.3746 45.5257 19.8549 45.2243 14.7828 46.7615L15.3629 48.6755C20.0048 47.2687 24.0061 47.5657 27.7257 49.339C31.4837 51.1305 35.0381 54.469 38.6714 59.303L40.2702 58.1013ZM14.7782 46.7629C6.47538 49.323 3.0272 56.32 2.09732 63.7774L4.08195 64.0249C4.95933 56.9885 8.11055 50.9117 15.3675 48.6741L14.7782 46.7629ZM2.09732 63.7774C1.62284 67.5827 2.25024 72.7302 3.77611 77.711C5.30202 82.6919 7.76876 87.6451 11.0864 90.9977L12.508 89.5909C9.49948 86.5507 7.16062 81.9308 5.68839 77.1251C4.2161 72.3193 3.65281 67.4665 4.08195 64.0249L2.09732 63.7774ZM11.1649 91.069C14.7575 94.0011 18.5088 95.8686 22.6411 96.4858C26.7712 97.1027 31.1946 96.4576 36.112 94.5077L35.3747 92.6485C30.7012 94.5018 26.6384 95.0606 22.9365 94.5077C19.2369 93.9551 15.8106 92.2791 12.4295 89.5195L11.1649 91.069ZM36.112 94.5077C41.1801 92.498 45.7391 87.6311 49.1278 83.0975C52.5406 78.5315 54.8917 74.1308 55.5095 72.8333L53.7037 71.9735C53.1354 73.1671 50.8504 77.4522 47.5258 81.9001C44.1771 86.3802 39.8975 90.8551 35.3747 92.6485L36.112 94.5077ZM55.5095 72.8333C56.102 71.5886 62.4127 58.384 68.5761 45.4888C71.6576 39.0415 74.7021 32.6722 76.9761 27.9146C78.1132 25.5358 79.0576 23.56 79.7178 22.1789C80.0479 21.4883 80.3069 20.9464 80.4834 20.5772C80.5717 20.3925 80.6393 20.2511 80.6848 20.1558C80.7076 20.1081 80.7249 20.072 80.7365 20.0478C80.7422 20.0357 80.7466 20.0266 80.7495 20.0205C80.751 20.0174 80.7521 20.0151 80.7528 20.0136C80.7532 20.0128 80.7534 20.0123 80.7536 20.0119C80.7538 20.0115 80.7539 20.0113 79.8517 19.58C78.9494 19.1488 78.9494 19.149 78.9492 19.1493C78.949 19.1497 78.9487 19.1503 78.9483 19.1511C78.9476 19.1526 78.9465 19.1549 78.9451 19.1579C78.9421 19.164 78.9378 19.1731 78.932 19.1852C78.9204 19.2095 78.9032 19.2456 78.8804 19.2932C78.8348 19.3885 78.7672 19.53 78.679 19.7146C78.5025 20.0839 78.2434 20.6258 77.9133 21.3163C77.2532 22.6975 76.3087 24.6733 75.1717 27.0521C72.8976 31.8097 69.8531 38.1791 66.7716 44.6263C60.609 57.52 54.2971 70.727 53.7037 71.9735L55.5095 72.8333ZM83.955 21.165C84.2609 20.3172 84.2755 19.4974 83.9831 18.7968C83.6904 18.0955 83.1276 17.6097 82.4751 17.3877C81.1473 16.9361 79.5935 17.5877 78.9276 19.1978L80.7757 19.9622C81.0699 19.251 81.5775 19.1949 81.8311 19.2812C81.9692 19.3282 82.0771 19.4226 82.1374 19.5671C82.198 19.7122 82.2479 20.0035 82.0737 20.4862L83.955 21.165ZM76.4069 33.7859L83.8719 21.34L82.1568 20.3112L74.6917 32.7571L76.4069 33.7859ZM72.8638 27.04C74.9437 33.0664 74.8849 36.9536 74.6179 41.2015L76.6139 41.327C76.8899 36.9383 76.9532 32.7585 74.7543 26.3875L72.8638 27.04ZM74.6226 41.1488C72.9456 55.5812 69.519 62.2722 62.7739 74.1167L64.5118 75.1064C71.3129 63.1638 74.8872 56.1996 76.6092 41.3796L74.6226 41.1488ZM62.8045 74.0664L54.4464 86.9182L56.123 88.0086L64.4812 75.1567L62.8045 74.0664ZM193.087 89.8986C191.402 90.3769 189.796 90.795 188.385 91.0843C186.959 91.3768 185.798 91.5239 184.982 91.4933L184.907 93.4919C185.97 93.5317 187.323 93.344 188.787 93.0435C190.268 92.7398 191.928 92.3066 193.633 91.8225L193.087 89.8986ZM184.982 91.4933C183.587 91.441 182.784 90.8723 182.156 89.9516C181.463 88.9364 181.015 87.5484 180.422 85.8343L178.532 86.4883C179.081 88.0745 179.621 89.7867 180.504 91.0794C181.451 92.4666 182.812 93.4134 184.907 93.4919L184.982 91.4933Z" fill="#383838"/>
</svg>
